M48
METRIC,LZ,000.000
;FILE_FORMAT=3:3
;TYPE=PLATED
;Layer: PTH_Through
;EasyEDA v6.5.9, 2022-07-24 14:24:57
;f987cc21297445cdbeb1743f52e6d1e3,55142d4dae0f4ab4aabfa0547b1eedf3,10
;Gerber Generator version 0.2
;Holesize 1 = 0.305 mm
T01C0.305
;Holesize 2 = 0.450 mm
T02C0.450
;Holesize 3 = 0.712 mm
T03C0.712
;Holesize 4 = 0.915 mm
T04C0.915
;Holesize 5 = 1.101 mm
T05C1.101
;Holesize 6 = 1.200 mm
T06C1.200
;Holesize 7 = 2.301 mm
T07C2.301
%
G05
G90
T01
X088392Y-023622
X030402Y-021590
X017780Y-019939
X115824Y-023749
X106680Y-034036
X103759Y-035306
X101981Y-033401
X090170Y-032131
X030099Y-014859
X041910Y-023368
X045974Y-030861
X017272Y-033909
X046736Y-033401
X026162Y-010033
X011938Y-030988
X045212Y-043942
X112014Y-016002
X051308Y-006731
X107950Y-011811
X106553Y-049911
X100457Y-049911
X100330Y-014224
X104151Y-054991
X091567Y-025654
X097790Y-031496
X069850Y-003429
X065786Y-004826
X015875Y-042418
X017653Y-042037
X112141Y-057531
X072263Y-041148
X074676Y-032385
X104013Y-057531
X051689Y-021971
X051308Y-039624
X040386Y-026289
X037846Y-024892
X091186Y-041910
X091694Y-040640
X128143Y-041021
X086360Y-009652
X036322Y-047371
X114681Y-042037
X116967Y-041656
X009652Y-060071
X023241Y-023749
X021169Y-030861
T02
X085060Y-003259G85X085060Y-004359
X090710Y-003259G85X090710Y-004359
T03
X027178Y-053086
X024638Y-053086
X022098Y-053086
X019558Y-053086
X017018Y-053086
X014478Y-053086
X011938Y-053086
X009398Y-053086
X009398Y-045466
X011938Y-045466
X014478Y-045466
X017018Y-045466
X019558Y-045466
X022098Y-045466
X024638Y-045466
X027178Y-045466
X032766Y-010541
X035306Y-010541
X037846Y-010541
X040386Y-010541
X042926Y-010541
X045466Y-010541
X048006Y-010541
X050546Y-010541
X050546Y-018161
X048006Y-018161
X045466Y-018161
X042926Y-018161
X040386Y-018161
X037846Y-018161
X035306Y-018161
X032766Y-018161
X100711Y-053086
X098171Y-053086
X095631Y-053086
X093091Y-053086
X090551Y-053086
X088011Y-053086
X085471Y-053086
X082931Y-053086
X082931Y-045466
X085471Y-045466
X088011Y-045466
X090551Y-045466
X093091Y-045466
X095631Y-045466
X098171Y-045466
X100711Y-045466
X124968Y-053086
X122428Y-053086
X119888Y-053086
X117348Y-053086
X114808Y-053086
X112268Y-053086
X109728Y-053086
X107188Y-053086
X107188Y-045466
X109728Y-045466
X112268Y-045466
X114808Y-045466
X117348Y-045466
X119888Y-045466
X122428Y-045466
X124968Y-045466
T04
X055880Y-052705
X055880Y-050165
X055880Y-047625
X055880Y-045085
X055880Y-042545
X055880Y-040005
X055880Y-037465
X055880Y-034925
X055880Y-032385
X055880Y-029845
X055880Y-027305
X055880Y-024765
X055880Y-022225
X055880Y-019685
X055880Y-017145
X055880Y-014605
X055880Y-012065
X055880Y-009525
X055880Y-006985
X078740Y-006985
X078740Y-009525
X078740Y-012065
X078740Y-014605
X078740Y-017145
X078740Y-019685
X078740Y-022225
X078740Y-024765
X078740Y-027305
X078740Y-029845
X078740Y-032385
X078740Y-034925
X078740Y-037465
X078740Y-040005
X078740Y-042545
X078740Y-045085
X078740Y-047625
X078740Y-050165
X078740Y-052705
X018669Y-028042
X021209Y-028677
X023190Y-030404
X024105Y-032893
X023800Y-035484
X022301Y-037643
X019990Y-038862
X017348Y-038862
X015037Y-037643
X013538Y-035484
X013233Y-032868
X014148Y-030404
X016129Y-028677
X045466Y-028042
X048006Y-028677
X049987Y-030404
X050902Y-032893
X050597Y-035484
X049098Y-037643
X046787Y-038862
X044145Y-038862
X041834Y-037643
X040335Y-035484
X040030Y-032868
X040945Y-030404
X042926Y-028677
X089027Y-028042
X091567Y-028677
X093548Y-030404
X094463Y-032893
X094158Y-035484
X092659Y-037643
X090348Y-038862
X087706Y-038862
X085395Y-037643
X083896Y-035484
X083591Y-032868
X084506Y-030404
X086487Y-028677
X115824Y-028042
X118364Y-028677
X120345Y-030404
X121260Y-032893
X120955Y-035484
X119456Y-037643
X117145Y-038862
X114503Y-038862
X112192Y-037643
X110693Y-035484
X110388Y-032868
X111303Y-030404
X113284Y-028677
T05
X124384Y-014594
X121884Y-014594
X119885Y-014594
X117384Y-014594
T06
X046609Y-051435
X046609Y-048895
X044069Y-051435
X044069Y-048895
X041529Y-051435
X041529Y-048895
X086233Y-013335
X086233Y-015875
X095217Y-023368
X095217Y-008148
X102870Y-008128
X107950Y-023368
T07
X113904Y-011822
X127904Y-011822
M30
