G04 Layer: TopSilkscreenLayer*
G04 EasyEDA v6.5.9, 2022-07-24 14:24:57*
G04 f987cc21297445cdbeb1743f52e6d1e3,55142d4dae0f4ab4aabfa0547b1eedf3,10*
G04 Gerber Generator version 0.2*
G04 Scale: 100 percent, Rotated: No, Reflected: No *
G04 Dimensions in millimeters *
G04 leading zeros omitted , absolute positions ,4 integer and 5 decimal *
%FSLAX45Y45*%
%MOMM*%

%ADD10C,0.2032*%
%ADD11C,0.1524*%
%ADD12C,0.2540*%

%LPD*%
D10*
X957397Y-2760797D02*
G01*
X1024928Y-2828328D01*
X978590Y-2739603D02*
G01*
X1046121Y-2807134D01*
X978590Y-2739603D02*
G01*
X1091201Y-2762054D01*
X1023670Y-2694523D02*
G01*
X1091201Y-2762054D01*
X1083299Y-2711764D02*
G01*
X1141133Y-2653931D01*
X1136642Y-2607055D02*
G01*
X1139875Y-2597355D01*
X1139875Y-2578318D01*
X1207406Y-2645849D01*
X1193398Y-2524795D02*
G01*
X1206149Y-2601846D01*
X1254285Y-2553710D01*
X1193398Y-2524795D02*
G01*
X1260929Y-2592326D01*
X749300Y-1613662D02*
G01*
X749300Y-1709165D01*
X749300Y-1659128D02*
G01*
X758444Y-1649984D01*
X767587Y-1645412D01*
X781050Y-1645412D01*
X790194Y-1649984D01*
X799337Y-1659128D01*
X803910Y-1672589D01*
X803910Y-1681734D01*
X799337Y-1695450D01*
X790194Y-1704594D01*
X781050Y-1709165D01*
X767587Y-1709165D01*
X758444Y-1704594D01*
X749300Y-1695450D01*
X838454Y-1645412D02*
G01*
X865631Y-1709165D01*
X892810Y-1645412D02*
G01*
X865631Y-1709165D01*
X856487Y-1727200D01*
X847597Y-1736344D01*
X838454Y-1740915D01*
X833881Y-1740915D01*
X1024636Y-1613662D02*
G01*
X1024636Y-1709165D01*
X992886Y-1613662D02*
G01*
X1056639Y-1613662D01*
X1109218Y-1645412D02*
G01*
X1100328Y-1649984D01*
X1091184Y-1659128D01*
X1086612Y-1672589D01*
X1086612Y-1681734D01*
X1091184Y-1695450D01*
X1100328Y-1704594D01*
X1109218Y-1709165D01*
X1122934Y-1709165D01*
X1132078Y-1704594D01*
X1141221Y-1695450D01*
X1145539Y-1681734D01*
X1145539Y-1672589D01*
X1141221Y-1659128D01*
X1132078Y-1649984D01*
X1122934Y-1645412D01*
X1109218Y-1645412D01*
X1175765Y-1613662D02*
G01*
X1175765Y-1709165D01*
X1175765Y-1659128D02*
G01*
X1184655Y-1649984D01*
X1193800Y-1645412D01*
X1207515Y-1645412D01*
X1216660Y-1649984D01*
X1225550Y-1659128D01*
X1230121Y-1672589D01*
X1230121Y-1681734D01*
X1225550Y-1695450D01*
X1216660Y-1704594D01*
X1207515Y-1709165D01*
X1193800Y-1709165D01*
X1184655Y-1704594D01*
X1175765Y-1695450D01*
X1260094Y-1613662D02*
G01*
X1264665Y-1618234D01*
X1269237Y-1613662D01*
X1264665Y-1609089D01*
X1260094Y-1613662D01*
X1264665Y-1645412D02*
G01*
X1264665Y-1709165D01*
X1353820Y-1645412D02*
G01*
X1353820Y-1709165D01*
X1353820Y-1659128D02*
G01*
X1344676Y-1649984D01*
X1335786Y-1645412D01*
X1322070Y-1645412D01*
X1312926Y-1649984D01*
X1303781Y-1659128D01*
X1299210Y-1672589D01*
X1299210Y-1681734D01*
X1303781Y-1695450D01*
X1312926Y-1704594D01*
X1322070Y-1709165D01*
X1335786Y-1709165D01*
X1344676Y-1704594D01*
X1353820Y-1695450D01*
X1433829Y-1659128D02*
G01*
X1429257Y-1649984D01*
X1415542Y-1645412D01*
X1402079Y-1645412D01*
X1388363Y-1649984D01*
X1383792Y-1659128D01*
X1388363Y-1668018D01*
X1397507Y-1672589D01*
X1420113Y-1677162D01*
X1429257Y-1681734D01*
X1433829Y-1690878D01*
X1433829Y-1695450D01*
X1429257Y-1704594D01*
X1415542Y-1709165D01*
X1402079Y-1709165D01*
X1388363Y-1704594D01*
X1383792Y-1695450D01*
X1533905Y-1613662D02*
G01*
X1556512Y-1709165D01*
X1579371Y-1613662D02*
G01*
X1556512Y-1709165D01*
X1579371Y-1613662D02*
G01*
X1601978Y-1709165D01*
X1624837Y-1613662D02*
G01*
X1601978Y-1709165D01*
X1709420Y-1645412D02*
G01*
X1709420Y-1709165D01*
X1709420Y-1659128D02*
G01*
X1700276Y-1649984D01*
X1691131Y-1645412D01*
X1677415Y-1645412D01*
X1668271Y-1649984D01*
X1659381Y-1659128D01*
X1654810Y-1672589D01*
X1654810Y-1681734D01*
X1659381Y-1695450D01*
X1668271Y-1704594D01*
X1677415Y-1709165D01*
X1691131Y-1709165D01*
X1700276Y-1704594D01*
X1709420Y-1695450D01*
X1793747Y-1645412D02*
G01*
X1793747Y-1718055D01*
X1789176Y-1731771D01*
X1784857Y-1736344D01*
X1775713Y-1740915D01*
X1761997Y-1740915D01*
X1752854Y-1736344D01*
X1793747Y-1659128D02*
G01*
X1784857Y-1649984D01*
X1775713Y-1645412D01*
X1761997Y-1645412D01*
X1752854Y-1649984D01*
X1743963Y-1659128D01*
X1739392Y-1672589D01*
X1739392Y-1681734D01*
X1743963Y-1695450D01*
X1752854Y-1704594D01*
X1761997Y-1709165D01*
X1775713Y-1709165D01*
X1784857Y-1704594D01*
X1793747Y-1695450D01*
X1823720Y-1645412D02*
G01*
X1823720Y-1709165D01*
X1823720Y-1663700D02*
G01*
X1837436Y-1649984D01*
X1846579Y-1645412D01*
X1860295Y-1645412D01*
X1869186Y-1649984D01*
X1873757Y-1663700D01*
X1873757Y-1709165D01*
X1903729Y-1672589D02*
G01*
X1958340Y-1672589D01*
X1958340Y-1663700D01*
X1953768Y-1654555D01*
X1949195Y-1649984D01*
X1940306Y-1645412D01*
X1926589Y-1645412D01*
X1917445Y-1649984D01*
X1908302Y-1659128D01*
X1903729Y-1672589D01*
X1903729Y-1681734D01*
X1908302Y-1695450D01*
X1917445Y-1704594D01*
X1926589Y-1709165D01*
X1940306Y-1709165D01*
X1949195Y-1704594D01*
X1958340Y-1695450D01*
X1988311Y-1645412D02*
G01*
X1988311Y-1709165D01*
X1988311Y-1672589D02*
G01*
X1992884Y-1659128D01*
X2002027Y-1649984D01*
X2011172Y-1645412D01*
X2024634Y-1645412D01*
X736600Y-1322070D02*
G01*
X736600Y-1513078D01*
X736600Y-1322070D02*
G01*
X863854Y-1513078D01*
X863854Y-1322070D02*
G01*
X863854Y-1513078D01*
X923797Y-1322070D02*
G01*
X932942Y-1331213D01*
X942086Y-1322070D01*
X932942Y-1313179D01*
X923797Y-1322070D01*
X932942Y-1385823D02*
G01*
X932942Y-1513078D01*
X1002029Y-1385823D02*
G01*
X1102105Y-1513078D01*
X1102105Y-1385823D02*
G01*
X1002029Y-1513078D01*
X1162050Y-1322070D02*
G01*
X1171194Y-1331213D01*
X1180337Y-1322070D01*
X1171194Y-1313179D01*
X1162050Y-1322070D01*
X1171194Y-1385823D02*
G01*
X1171194Y-1513078D01*
X1240281Y-1440434D02*
G01*
X1349247Y-1440434D01*
X1349247Y-1422145D01*
X1340357Y-1404112D01*
X1331213Y-1394968D01*
X1312926Y-1385823D01*
X1285747Y-1385823D01*
X1267460Y-1394968D01*
X1249426Y-1413002D01*
X1240281Y-1440434D01*
X1240281Y-1458468D01*
X1249426Y-1485900D01*
X1267460Y-1503934D01*
X1285747Y-1513078D01*
X1312926Y-1513078D01*
X1331213Y-1503934D01*
X1349247Y-1485900D01*
X1685797Y-1367536D02*
G01*
X1676654Y-1349502D01*
X1658365Y-1331213D01*
X1640331Y-1322070D01*
X1603755Y-1322070D01*
X1585721Y-1331213D01*
X1567434Y-1349502D01*
X1558544Y-1367536D01*
X1549400Y-1394968D01*
X1549400Y-1440434D01*
X1558544Y-1467612D01*
X1567434Y-1485900D01*
X1585721Y-1503934D01*
X1603755Y-1513078D01*
X1640331Y-1513078D01*
X1658365Y-1503934D01*
X1676654Y-1485900D01*
X1685797Y-1467612D01*
X1745742Y-1322070D02*
G01*
X1745742Y-1513078D01*
X1851152Y-1385823D02*
G01*
X1832863Y-1394968D01*
X1814829Y-1413002D01*
X1805686Y-1440434D01*
X1805686Y-1458468D01*
X1814829Y-1485900D01*
X1832863Y-1503934D01*
X1851152Y-1513078D01*
X1878329Y-1513078D01*
X1896618Y-1503934D01*
X1914905Y-1485900D01*
X1923795Y-1458468D01*
X1923795Y-1440434D01*
X1914905Y-1413002D01*
X1896618Y-1394968D01*
X1878329Y-1385823D01*
X1851152Y-1385823D01*
X2092959Y-1413002D02*
G01*
X2074672Y-1394968D01*
X2056638Y-1385823D01*
X2029206Y-1385823D01*
X2011172Y-1394968D01*
X1992884Y-1413002D01*
X1983993Y-1440434D01*
X1983993Y-1458468D01*
X1992884Y-1485900D01*
X2011172Y-1503934D01*
X2029206Y-1513078D01*
X2056638Y-1513078D01*
X2074672Y-1503934D01*
X2092959Y-1485900D01*
X2152904Y-1322070D02*
G01*
X2152904Y-1513078D01*
X2243836Y-1385823D02*
G01*
X2152904Y-1476755D01*
X2189225Y-1440434D02*
G01*
X2252979Y-1513078D01*
X2452877Y-1322070D02*
G01*
X2525775Y-1513078D01*
X2598420Y-1322070D02*
G01*
X2525775Y-1513078D01*
X2658363Y-1358645D02*
G01*
X2676652Y-1349502D01*
X2703829Y-1322070D01*
X2703829Y-1513078D01*
X2772918Y-1467612D02*
G01*
X2763774Y-1476755D01*
X2772918Y-1485900D01*
X2782061Y-1476755D01*
X2772918Y-1467612D01*
X2896615Y-1322070D02*
G01*
X2869438Y-1331213D01*
X2851150Y-1358645D01*
X2842006Y-1404112D01*
X2842006Y-1431289D01*
X2851150Y-1476755D01*
X2869438Y-1503934D01*
X2896615Y-1513078D01*
X2914904Y-1513078D01*
X2942081Y-1503934D01*
X2960115Y-1476755D01*
X2969259Y-1431289D01*
X2969259Y-1404112D01*
X2960115Y-1358645D01*
X2942081Y-1331213D01*
X2914904Y-1322070D01*
X2896615Y-1322070D01*
D11*
X1981200Y-2297684D02*
G01*
X1981200Y-2375662D01*
X1986279Y-2391155D01*
X1996693Y-2401570D01*
X2012441Y-2406650D01*
X2022856Y-2406650D01*
X2038350Y-2401570D01*
X2048763Y-2391155D01*
X2053843Y-2375662D01*
X2053843Y-2297684D01*
X2088134Y-2318512D02*
G01*
X2098547Y-2313178D01*
X2114295Y-2297684D01*
X2114295Y-2406650D01*
D10*
X1435100Y-3978655D02*
G01*
X1435100Y-4172457D01*
X1435100Y-3978655D02*
G01*
X1555242Y-3978655D01*
X1435100Y-4070857D02*
G01*
X1509013Y-4070857D01*
X1616202Y-3978655D02*
G01*
X1616202Y-4172457D01*
X1616202Y-3978655D02*
G01*
X1699260Y-3978655D01*
X1726945Y-3987800D01*
X1736089Y-3996944D01*
X1745487Y-4015486D01*
X1745487Y-4034028D01*
X1736089Y-4052570D01*
X1726945Y-4061713D01*
X1699260Y-4070857D01*
X1616202Y-4070857D01*
X1680718Y-4070857D02*
G01*
X1745487Y-4172457D01*
X1861820Y-3978655D02*
G01*
X1843278Y-3987800D01*
X1824989Y-4006342D01*
X1815592Y-4024629D01*
X1806447Y-4052570D01*
X1806447Y-4098544D01*
X1815592Y-4126229D01*
X1824989Y-4144771D01*
X1843278Y-4163313D01*
X1861820Y-4172457D01*
X1898650Y-4172457D01*
X1917192Y-4163313D01*
X1935734Y-4144771D01*
X1944877Y-4126229D01*
X1954275Y-4098544D01*
X1954275Y-4052570D01*
X1944877Y-4024629D01*
X1935734Y-4006342D01*
X1917192Y-3987800D01*
X1898650Y-3978655D01*
X1861820Y-3978655D01*
X2015236Y-3978655D02*
G01*
X2015236Y-4172457D01*
X2015236Y-3978655D02*
G01*
X2144522Y-4172457D01*
X2144522Y-3978655D02*
G01*
X2144522Y-4172457D01*
X2269997Y-3978655D02*
G01*
X2269997Y-4172457D01*
X2205481Y-3978655D02*
G01*
X2334768Y-3978655D01*
X1864613Y-2454655D02*
G01*
X1790700Y-2648457D01*
X1864613Y-2454655D02*
G01*
X1938527Y-2648457D01*
X1818386Y-2583942D02*
G01*
X1910842Y-2583942D01*
D11*
X4546600Y-2272284D02*
G01*
X4546600Y-2350262D01*
X4551679Y-2365755D01*
X4562093Y-2376170D01*
X4577841Y-2381250D01*
X4588256Y-2381250D01*
X4603750Y-2376170D01*
X4614163Y-2365755D01*
X4619243Y-2350262D01*
X4619243Y-2272284D01*
X4663947Y-2272284D02*
G01*
X4721097Y-2272284D01*
X4690109Y-2313939D01*
X4705604Y-2313939D01*
X4716018Y-2319020D01*
X4721097Y-2324100D01*
X4726431Y-2339847D01*
X4726431Y-2350262D01*
X4721097Y-2365755D01*
X4710684Y-2376170D01*
X4695190Y-2381250D01*
X4679695Y-2381250D01*
X4663947Y-2376170D01*
X4658868Y-2371089D01*
X4653534Y-2360676D01*
D10*
X4114800Y-3978655D02*
G01*
X4114800Y-4172457D01*
X4114800Y-3978655D02*
G01*
X4234941Y-3978655D01*
X4114800Y-4070857D02*
G01*
X4188713Y-4070857D01*
X4295902Y-3978655D02*
G01*
X4295902Y-4172457D01*
X4295902Y-3978655D02*
G01*
X4378959Y-3978655D01*
X4406645Y-3987800D01*
X4415790Y-3996944D01*
X4425188Y-4015486D01*
X4425188Y-4034028D01*
X4415790Y-4052570D01*
X4406645Y-4061713D01*
X4378959Y-4070857D01*
X4295902Y-4070857D01*
X4360418Y-4070857D02*
G01*
X4425188Y-4172457D01*
X4541520Y-3978655D02*
G01*
X4522977Y-3987800D01*
X4504690Y-4006342D01*
X4495291Y-4024629D01*
X4486147Y-4052570D01*
X4486147Y-4098544D01*
X4495291Y-4126229D01*
X4504690Y-4144771D01*
X4522977Y-4163313D01*
X4541520Y-4172457D01*
X4578350Y-4172457D01*
X4596891Y-4163313D01*
X4615434Y-4144771D01*
X4624577Y-4126229D01*
X4633975Y-4098544D01*
X4633975Y-4052570D01*
X4624577Y-4024629D01*
X4615434Y-4006342D01*
X4596891Y-3987800D01*
X4578350Y-3978655D01*
X4541520Y-3978655D01*
X4694936Y-3978655D02*
G01*
X4694936Y-4172457D01*
X4694936Y-3978655D02*
G01*
X4824222Y-4172457D01*
X4824222Y-3978655D02*
G01*
X4824222Y-4172457D01*
X4949697Y-3978655D02*
G01*
X4949697Y-4172457D01*
X4885181Y-3978655D02*
G01*
X5014468Y-3978655D01*
X4544313Y-2454655D02*
G01*
X4470400Y-2648457D01*
X4544313Y-2454655D02*
G01*
X4618227Y-2648457D01*
X4498086Y-2583942D02*
G01*
X4590541Y-2583942D01*
D11*
X8902700Y-2272284D02*
G01*
X8902700Y-2350262D01*
X8907779Y-2365755D01*
X8918193Y-2376170D01*
X8933941Y-2381250D01*
X8944356Y-2381250D01*
X8959850Y-2376170D01*
X8970263Y-2365755D01*
X8975343Y-2350262D01*
X8975343Y-2272284D01*
X9072118Y-2272284D02*
G01*
X9020047Y-2272284D01*
X9014968Y-2319020D01*
X9020047Y-2313939D01*
X9035795Y-2308605D01*
X9051290Y-2308605D01*
X9066784Y-2313939D01*
X9077197Y-2324100D01*
X9082531Y-2339847D01*
X9082531Y-2350262D01*
X9077197Y-2365755D01*
X9066784Y-2376170D01*
X9051290Y-2381250D01*
X9035795Y-2381250D01*
X9020047Y-2376170D01*
X9014968Y-2371089D01*
X9009634Y-2360676D01*
D10*
X8470900Y-3978655D02*
G01*
X8470900Y-4172457D01*
X8470900Y-3978655D02*
G01*
X8591041Y-3978655D01*
X8470900Y-4070857D02*
G01*
X8544813Y-4070857D01*
X8652002Y-3978655D02*
G01*
X8652002Y-4172457D01*
X8652002Y-3978655D02*
G01*
X8735059Y-3978655D01*
X8762745Y-3987800D01*
X8771890Y-3996944D01*
X8781288Y-4015486D01*
X8781288Y-4034028D01*
X8771890Y-4052570D01*
X8762745Y-4061713D01*
X8735059Y-4070857D01*
X8652002Y-4070857D01*
X8716518Y-4070857D02*
G01*
X8781288Y-4172457D01*
X8897620Y-3978655D02*
G01*
X8879077Y-3987800D01*
X8860790Y-4006342D01*
X8851391Y-4024629D01*
X8842247Y-4052570D01*
X8842247Y-4098544D01*
X8851391Y-4126229D01*
X8860790Y-4144771D01*
X8879077Y-4163313D01*
X8897620Y-4172457D01*
X8934450Y-4172457D01*
X8952991Y-4163313D01*
X8971534Y-4144771D01*
X8980677Y-4126229D01*
X8990075Y-4098544D01*
X8990075Y-4052570D01*
X8980677Y-4024629D01*
X8971534Y-4006342D01*
X8952991Y-3987800D01*
X8934450Y-3978655D01*
X8897620Y-3978655D01*
X9051036Y-3978655D02*
G01*
X9051036Y-4172457D01*
X9051036Y-3978655D02*
G01*
X9180322Y-4172457D01*
X9180322Y-3978655D02*
G01*
X9180322Y-4172457D01*
X9305797Y-3978655D02*
G01*
X9305797Y-4172457D01*
X9241281Y-3978655D02*
G01*
X9370568Y-3978655D01*
X8900413Y-2454655D02*
G01*
X8826500Y-2648457D01*
X8900413Y-2454655D02*
G01*
X8974327Y-2648457D01*
X8854186Y-2583942D02*
G01*
X8946641Y-2583942D01*
D11*
X11582400Y-2272284D02*
G01*
X11582400Y-2350262D01*
X11587479Y-2365755D01*
X11597893Y-2376170D01*
X11613641Y-2381250D01*
X11624056Y-2381250D01*
X11639550Y-2376170D01*
X11649963Y-2365755D01*
X11655043Y-2350262D01*
X11655043Y-2272284D01*
X11762231Y-2272284D02*
G01*
X11710161Y-2381250D01*
X11689334Y-2272284D02*
G01*
X11762231Y-2272284D01*
D10*
X11150600Y-3978655D02*
G01*
X11150600Y-4172457D01*
X11150600Y-3978655D02*
G01*
X11270741Y-3978655D01*
X11150600Y-4070857D02*
G01*
X11224513Y-4070857D01*
X11331702Y-3978655D02*
G01*
X11331702Y-4172457D01*
X11331702Y-3978655D02*
G01*
X11414759Y-3978655D01*
X11442445Y-3987800D01*
X11451590Y-3996944D01*
X11460988Y-4015486D01*
X11460988Y-4034028D01*
X11451590Y-4052570D01*
X11442445Y-4061713D01*
X11414759Y-4070857D01*
X11331702Y-4070857D01*
X11396218Y-4070857D02*
G01*
X11460988Y-4172457D01*
X11577320Y-3978655D02*
G01*
X11558777Y-3987800D01*
X11540490Y-4006342D01*
X11531091Y-4024629D01*
X11521947Y-4052570D01*
X11521947Y-4098544D01*
X11531091Y-4126229D01*
X11540490Y-4144771D01*
X11558777Y-4163313D01*
X11577320Y-4172457D01*
X11614150Y-4172457D01*
X11632691Y-4163313D01*
X11651234Y-4144771D01*
X11660377Y-4126229D01*
X11669775Y-4098544D01*
X11669775Y-4052570D01*
X11660377Y-4024629D01*
X11651234Y-4006342D01*
X11632691Y-3987800D01*
X11614150Y-3978655D01*
X11577320Y-3978655D01*
X11730736Y-3978655D02*
G01*
X11730736Y-4172457D01*
X11730736Y-3978655D02*
G01*
X11860022Y-4172457D01*
X11860022Y-3978655D02*
G01*
X11860022Y-4172457D01*
X11985497Y-3978655D02*
G01*
X11985497Y-4172457D01*
X11920981Y-3978655D02*
G01*
X12050268Y-3978655D01*
X11580113Y-2454655D02*
G01*
X11506200Y-2648457D01*
X11580113Y-2454655D02*
G01*
X11654027Y-2648457D01*
X11533886Y-2583942D02*
G01*
X11626341Y-2583942D01*
D12*
X1616913Y-3102813D02*
G01*
X2116912Y-3102813D01*
X2116912Y-3602812D01*
X1616913Y-3602812D01*
X1616913Y-3102813D01*
X4296613Y-3102813D02*
G01*
X4796612Y-3102813D01*
X4796612Y-3602812D01*
X4296613Y-3602812D01*
X4296613Y-3102813D01*
X8652713Y-3102813D02*
G01*
X9152712Y-3102813D01*
X9152712Y-3602812D01*
X8652713Y-3602812D01*
X8652713Y-3102813D01*
X11332413Y-3102813D02*
G01*
X11832412Y-3102813D01*
X11832412Y-3602812D01*
X11332413Y-3602812D01*
X11332413Y-3102813D01*
X1866900Y-3606800D02*
G01*
X1866900Y-3098800D01*
X1841500Y-3098800D01*
X1689100Y-3251200D01*
X1866900Y-3073400D01*
X2044700Y-3251200D01*
X4546600Y-3606800D02*
G01*
X4546600Y-3098800D01*
X4521200Y-3098800D01*
X4368800Y-3251200D01*
X4546600Y-3073400D01*
X4724400Y-3251200D01*
X8902700Y-3606800D02*
G01*
X8902700Y-3098800D01*
X8877300Y-3098800D01*
X8724900Y-3251200D01*
X8902700Y-3073400D01*
X9080500Y-3251200D01*
X11582400Y-3606800D02*
G01*
X11582400Y-3098800D01*
X11557000Y-3098800D01*
X11404600Y-3251200D01*
X11582400Y-3073400D01*
X11760200Y-3251200D01*
G75*
G01
X2016912Y-3352800D02*
G03X2016912Y-3352800I-150012J0D01*
G75*
G01
X1591894Y-3077794D02*
G03X1591894Y-3077794I-12497J0D01*
G75*
G01
X4696612Y-3352800D02*
G03X4696612Y-3352800I-150012J0D01*
G75*
G01
X4271594Y-3077794D02*
G03X4271594Y-3077794I-12497J0D01*
G75*
G01
X9052712Y-3352800D02*
G03X9052712Y-3352800I-150012J0D01*
G75*
G01
X8627694Y-3077794D02*
G03X8627694Y-3077794I-12497J0D01*
G75*
G01
X11732412Y-3352800D02*
G03X11732412Y-3352800I-150012J0D01*
G75*
G01
X11307394Y-3077794D02*
G03X11307394Y-3077794I-12497J0D01*
G75*
G01
X2791460Y-3352800D02*
G03X2791460Y-3352800I-924560J0D01*
G75*
G01
X2415540Y-3352800D02*
G03X2415540Y-3352800I-548640J0D01*
G75*
G01
X5471160Y-3352800D02*
G03X5471160Y-3352800I-924560J0D01*
G75*
G01
X5095240Y-3352800D02*
G03X5095240Y-3352800I-548640J0D01*
G75*
G01
X9827260Y-3352800D02*
G03X9827260Y-3352800I-924560J0D01*
G75*
G01
X9451340Y-3352800D02*
G03X9451340Y-3352800I-548640J0D01*
G75*
G01
X12506960Y-3352800D02*
G03X12506960Y-3352800I-924560J0D01*
G75*
G01
X12131040Y-3352800D02*
G03X12131040Y-3352800I-548640J0D01*
M02*
