G04 Layer: TopPasteMaskLayer*
G04 EasyEDA v6.5.9, 2022-07-24 14:24:57*
G04 f987cc21297445cdbeb1743f52e6d1e3,55142d4dae0f4ab4aabfa0547b1eedf3,10*
G04 Gerber Generator version 0.2*
G04 Scale: 100 percent, Rotated: No, Reflected: No *
G04 Dimensions in millimeters *
G04 leading zeros omitted , absolute positions ,4 integer and 5 decimal *
%FSLAX45Y45*%
%MOMM*%

%ADD10C,0.0001*%

%LPD*%
G36*
X1541906Y-3152800D02*
G01*
X1691919Y-3152800D01*
X1691919Y-3252825D01*
X1541906Y-3252825D01*
G37*
G36*
X1541906Y-3452799D02*
G01*
X1691919Y-3452799D01*
X1691919Y-3552799D01*
X1541906Y-3552799D01*
G37*
G36*
X2041906Y-3452799D02*
G01*
X2191918Y-3452799D01*
X2191918Y-3552799D01*
X2041906Y-3552799D01*
G37*
G36*
X2041906Y-3152800D02*
G01*
X2191918Y-3152800D01*
X2191918Y-3252800D01*
X2041906Y-3252800D01*
G37*
G36*
X4221606Y-3152800D02*
G01*
X4371619Y-3152800D01*
X4371619Y-3252825D01*
X4221606Y-3252825D01*
G37*
G36*
X4221606Y-3452799D02*
G01*
X4371619Y-3452799D01*
X4371619Y-3552799D01*
X4221606Y-3552799D01*
G37*
G36*
X4721606Y-3452799D02*
G01*
X4871618Y-3452799D01*
X4871618Y-3552799D01*
X4721606Y-3552799D01*
G37*
G36*
X4721606Y-3152800D02*
G01*
X4871618Y-3152800D01*
X4871618Y-3252800D01*
X4721606Y-3252800D01*
G37*
G36*
X8577706Y-3152800D02*
G01*
X8727719Y-3152800D01*
X8727719Y-3252825D01*
X8577706Y-3252825D01*
G37*
G36*
X8577706Y-3452799D02*
G01*
X8727719Y-3452799D01*
X8727719Y-3552799D01*
X8577706Y-3552799D01*
G37*
G36*
X9077706Y-3452799D02*
G01*
X9227718Y-3452799D01*
X9227718Y-3552799D01*
X9077706Y-3552799D01*
G37*
G36*
X9077706Y-3152800D02*
G01*
X9227718Y-3152800D01*
X9227718Y-3252800D01*
X9077706Y-3252800D01*
G37*
G36*
X11257406Y-3152800D02*
G01*
X11407419Y-3152800D01*
X11407419Y-3252825D01*
X11257406Y-3252825D01*
G37*
G36*
X11257406Y-3452799D02*
G01*
X11407419Y-3452799D01*
X11407419Y-3552799D01*
X11257406Y-3552799D01*
G37*
G36*
X11757406Y-3452799D02*
G01*
X11907418Y-3452799D01*
X11907418Y-3552799D01*
X11757406Y-3552799D01*
G37*
G36*
X11757406Y-3152800D02*
G01*
X11907418Y-3152800D01*
X11907418Y-3252800D01*
X11757406Y-3252800D01*
G37*
M02*
