G04 Layer: BottomSolderMaskLayer*
G04 EasyEDA v6.5.9, 2022-07-24 14:24:57*
G04 f987cc21297445cdbeb1743f52e6d1e3,55142d4dae0f4ab4aabfa0547b1eedf3,10*
G04 Gerber Generator version 0.2*
G04 Scale: 100 percent, Rotated: No, Reflected: No *
G04 Dimensions in millimeters *
G04 leading zeros omitted , absolute positions ,4 integer and 5 decimal *
%FSLAX45Y45*%
%MOMM*%

%ADD10C,1.1532*%
%ADD11C,2.0032*%
%ADD12C,1.9032*%
%ADD13C,3.4032*%
%ADD14C,1.7272*%
%ADD15C,1.6002*%
%ADD16C,2.7432*%
%ADD17C,0.0104*%

%LPD*%
D10*
X8505901Y-435899D02*
G01*
X8505901Y-325899D01*
X9070898Y-435899D02*
G01*
X9070898Y-325899D01*
G36*
X2291841Y-2583687D02*
G01*
X2291798Y-2583660D01*
X2288750Y-2583152D01*
X2285702Y-2581628D01*
X2283670Y-2579596D01*
X2282146Y-2576548D01*
X2281638Y-2573500D01*
X2281681Y-2573528D01*
X2281681Y-2493518D01*
X2281638Y-2493500D01*
X2282146Y-2490452D01*
X2283670Y-2487404D01*
X2285702Y-2485372D01*
X2288750Y-2483848D01*
X2291798Y-2483340D01*
X2291841Y-2483357D01*
X2381758Y-2483357D01*
X2381801Y-2483340D01*
X2384849Y-2483848D01*
X2387897Y-2485372D01*
X2389929Y-2487404D01*
X2391453Y-2490452D01*
X2391961Y-2493500D01*
X2391918Y-2493518D01*
X2391918Y-2573528D01*
X2391961Y-2573500D01*
X2391453Y-2576548D01*
X2389929Y-2579596D01*
X2387897Y-2581628D01*
X2384849Y-2583152D01*
X2381801Y-2583660D01*
X2381758Y-2583687D01*
G37*
G36*
X2291798Y-2723659D02*
G01*
X2288750Y-2723151D01*
X2285702Y-2721627D01*
X2283670Y-2719595D01*
X2282146Y-2716547D01*
X2281638Y-2713499D01*
X2281681Y-2713481D01*
X2281681Y-2633471D01*
X2281638Y-2633499D01*
X2282146Y-2630451D01*
X2283670Y-2627403D01*
X2285702Y-2625371D01*
X2288750Y-2623847D01*
X2291798Y-2623339D01*
X2291841Y-2623312D01*
X2381758Y-2623312D01*
X2381801Y-2623339D01*
X2384849Y-2623847D01*
X2387897Y-2625371D01*
X2389929Y-2627403D01*
X2391453Y-2630451D01*
X2391961Y-2633499D01*
X2391918Y-2633471D01*
X2391918Y-2713481D01*
X2391961Y-2713499D01*
X2391453Y-2716547D01*
X2389929Y-2719595D01*
X2387897Y-2721627D01*
X2384849Y-2723151D01*
X2381801Y-2723659D01*
X2381758Y-2723642D01*
X2291841Y-2723642D01*
G37*
G36*
X9479998Y-564659D02*
G01*
X9476950Y-564151D01*
X9473902Y-562627D01*
X9471870Y-560595D01*
X9470346Y-557547D01*
X9469838Y-554499D01*
X9469881Y-554481D01*
X9469881Y-474471D01*
X9469838Y-474499D01*
X9470346Y-471451D01*
X9471870Y-468403D01*
X9473902Y-466371D01*
X9476950Y-464847D01*
X9479998Y-464339D01*
X9480041Y-464312D01*
X9569958Y-464312D01*
X9570001Y-464339D01*
X9573049Y-464847D01*
X9576097Y-466371D01*
X9578129Y-468403D01*
X9579653Y-471451D01*
X9580161Y-474499D01*
X9580118Y-474471D01*
X9580118Y-554481D01*
X9580161Y-554499D01*
X9579653Y-557547D01*
X9578129Y-560595D01*
X9576097Y-562627D01*
X9573049Y-564151D01*
X9570001Y-564659D01*
X9569958Y-564642D01*
X9480041Y-564642D01*
G37*
G36*
X9480041Y-424687D02*
G01*
X9479998Y-424660D01*
X9476950Y-424152D01*
X9473902Y-422628D01*
X9471870Y-420596D01*
X9470346Y-417548D01*
X9469838Y-414500D01*
X9469881Y-414528D01*
X9469881Y-334518D01*
X9469838Y-334500D01*
X9470346Y-331452D01*
X9471870Y-328404D01*
X9473902Y-326372D01*
X9476950Y-324848D01*
X9479998Y-324340D01*
X9480041Y-324357D01*
X9569958Y-324357D01*
X9570001Y-324340D01*
X9573049Y-324848D01*
X9576097Y-326372D01*
X9578129Y-328404D01*
X9579653Y-331452D01*
X9580161Y-334500D01*
X9580118Y-334518D01*
X9580118Y-414528D01*
X9580161Y-414500D01*
X9579653Y-417548D01*
X9578129Y-420596D01*
X9576097Y-422628D01*
X9573049Y-424152D01*
X9570001Y-424660D01*
X9569958Y-424687D01*
G37*
G36*
X10432541Y-5047487D02*
G01*
X10432498Y-5047460D01*
X10429450Y-5046952D01*
X10426402Y-5045428D01*
X10424370Y-5043396D01*
X10422846Y-5040348D01*
X10422338Y-5037300D01*
X10422381Y-5037328D01*
X10422381Y-4957318D01*
X10422338Y-4957300D01*
X10422846Y-4954252D01*
X10424370Y-4951204D01*
X10426402Y-4949172D01*
X10429450Y-4947648D01*
X10432498Y-4947140D01*
X10432541Y-4947157D01*
X10522458Y-4947157D01*
X10522501Y-4947140D01*
X10525549Y-4947648D01*
X10528597Y-4949172D01*
X10530629Y-4951204D01*
X10532153Y-4954252D01*
X10532661Y-4957300D01*
X10532618Y-4957318D01*
X10532618Y-5037328D01*
X10532661Y-5037300D01*
X10532153Y-5040348D01*
X10530629Y-5043396D01*
X10528597Y-5045428D01*
X10525549Y-5046952D01*
X10522501Y-5047460D01*
X10522458Y-5047487D01*
G37*
G36*
X10432498Y-5187459D02*
G01*
X10429450Y-5186951D01*
X10426402Y-5185427D01*
X10424370Y-5183395D01*
X10422846Y-5180347D01*
X10422338Y-5177299D01*
X10422381Y-5177281D01*
X10422381Y-5097271D01*
X10422338Y-5097299D01*
X10422846Y-5094251D01*
X10424370Y-5091203D01*
X10426402Y-5089171D01*
X10429450Y-5087647D01*
X10432498Y-5087139D01*
X10432541Y-5087112D01*
X10522458Y-5087112D01*
X10522501Y-5087139D01*
X10525549Y-5087647D01*
X10528597Y-5089171D01*
X10530629Y-5091203D01*
X10532153Y-5094251D01*
X10532661Y-5097299D01*
X10532618Y-5097271D01*
X10532618Y-5177281D01*
X10532661Y-5177299D01*
X10532153Y-5180347D01*
X10530629Y-5183395D01*
X10528597Y-5185427D01*
X10525549Y-5186951D01*
X10522501Y-5187459D01*
X10522458Y-5187442D01*
X10432541Y-5187442D01*
G37*
G36*
X10267441Y-5047487D02*
G01*
X10267398Y-5047460D01*
X10264350Y-5046952D01*
X10261302Y-5045428D01*
X10259270Y-5043396D01*
X10257746Y-5040348D01*
X10257238Y-5037300D01*
X10257281Y-5037328D01*
X10257281Y-4957318D01*
X10257238Y-4957300D01*
X10257746Y-4954252D01*
X10259270Y-4951204D01*
X10261302Y-4949172D01*
X10264350Y-4947648D01*
X10267398Y-4947140D01*
X10267441Y-4947157D01*
X10357358Y-4947157D01*
X10357401Y-4947140D01*
X10360449Y-4947648D01*
X10363497Y-4949172D01*
X10365529Y-4951204D01*
X10367053Y-4954252D01*
X10367561Y-4957300D01*
X10367518Y-4957318D01*
X10367518Y-5037328D01*
X10367561Y-5037300D01*
X10367053Y-5040348D01*
X10365529Y-5043396D01*
X10363497Y-5045428D01*
X10360449Y-5046952D01*
X10357401Y-5047460D01*
X10357358Y-5047487D01*
G37*
G36*
X10267398Y-5187459D02*
G01*
X10264350Y-5186951D01*
X10261302Y-5185427D01*
X10259270Y-5183395D01*
X10257746Y-5180347D01*
X10257238Y-5177299D01*
X10257281Y-5177281D01*
X10257281Y-5097271D01*
X10257238Y-5097299D01*
X10257746Y-5094251D01*
X10259270Y-5091203D01*
X10261302Y-5089171D01*
X10264350Y-5087647D01*
X10267398Y-5087139D01*
X10267441Y-5087112D01*
X10357358Y-5087112D01*
X10357401Y-5087139D01*
X10360449Y-5087647D01*
X10363497Y-5089171D01*
X10365529Y-5091203D01*
X10367053Y-5094251D01*
X10367561Y-5097299D01*
X10367518Y-5097271D01*
X10367518Y-5177281D01*
X10367561Y-5177299D01*
X10367053Y-5180347D01*
X10365529Y-5183395D01*
X10363497Y-5185427D01*
X10360449Y-5186951D01*
X10357401Y-5187459D01*
X10357358Y-5187442D01*
X10267441Y-5187442D01*
G37*
G36*
X5263598Y-1034559D02*
G01*
X5260550Y-1034051D01*
X5257502Y-1032527D01*
X5255470Y-1030495D01*
X5253946Y-1027447D01*
X5253438Y-1024399D01*
X5253481Y-1024381D01*
X5253481Y-944371D01*
X5253438Y-944399D01*
X5253946Y-941351D01*
X5255470Y-938303D01*
X5257502Y-936271D01*
X5260550Y-934747D01*
X5263598Y-934239D01*
X5263641Y-934212D01*
X5353558Y-934212D01*
X5353601Y-934239D01*
X5356649Y-934747D01*
X5359697Y-936271D01*
X5361729Y-938303D01*
X5363253Y-941351D01*
X5363761Y-944399D01*
X5363718Y-944371D01*
X5363718Y-1024381D01*
X5363761Y-1024399D01*
X5363253Y-1027447D01*
X5361729Y-1030495D01*
X5359697Y-1032527D01*
X5356649Y-1034051D01*
X5353601Y-1034559D01*
X5353558Y-1034542D01*
X5263641Y-1034542D01*
G37*
G36*
X5263641Y-894587D02*
G01*
X5263598Y-894560D01*
X5260550Y-894052D01*
X5257502Y-892528D01*
X5255470Y-890496D01*
X5253946Y-887448D01*
X5253438Y-884400D01*
X5253481Y-884428D01*
X5253481Y-804418D01*
X5253438Y-804400D01*
X5253946Y-801352D01*
X5255470Y-798304D01*
X5257502Y-796272D01*
X5260550Y-794748D01*
X5263598Y-794240D01*
X5263641Y-794257D01*
X5353558Y-794257D01*
X5353601Y-794240D01*
X5356649Y-794748D01*
X5359697Y-796272D01*
X5361729Y-798304D01*
X5363253Y-801352D01*
X5363761Y-804400D01*
X5363718Y-804418D01*
X5363718Y-884428D01*
X5363761Y-884400D01*
X5363253Y-887448D01*
X5361729Y-890496D01*
X5359697Y-892528D01*
X5356649Y-894052D01*
X5353601Y-894560D01*
X5353558Y-894587D01*
G37*
G36*
X3739641Y-4704587D02*
G01*
X3739598Y-4704560D01*
X3736550Y-4704052D01*
X3733502Y-4702528D01*
X3731470Y-4700496D01*
X3729946Y-4697448D01*
X3729438Y-4694400D01*
X3729481Y-4694428D01*
X3729481Y-4614418D01*
X3729438Y-4614400D01*
X3729946Y-4611352D01*
X3731470Y-4608304D01*
X3733502Y-4606272D01*
X3736550Y-4604748D01*
X3739598Y-4604240D01*
X3739641Y-4604257D01*
X3829558Y-4604257D01*
X3829601Y-4604240D01*
X3832649Y-4604748D01*
X3835697Y-4606272D01*
X3837729Y-4608304D01*
X3839253Y-4611352D01*
X3839761Y-4614400D01*
X3839718Y-4614418D01*
X3839718Y-4694428D01*
X3839761Y-4694400D01*
X3839253Y-4697448D01*
X3837729Y-4700496D01*
X3835697Y-4702528D01*
X3832649Y-4704052D01*
X3829601Y-4704560D01*
X3829558Y-4704587D01*
G37*
G36*
X3739598Y-4844559D02*
G01*
X3736550Y-4844051D01*
X3733502Y-4842527D01*
X3731470Y-4840495D01*
X3729946Y-4837447D01*
X3729438Y-4834399D01*
X3729481Y-4834381D01*
X3729481Y-4754371D01*
X3729438Y-4754399D01*
X3729946Y-4751351D01*
X3731470Y-4748303D01*
X3733502Y-4746271D01*
X3736550Y-4744747D01*
X3739598Y-4744239D01*
X3739641Y-4744212D01*
X3829558Y-4744212D01*
X3829601Y-4744239D01*
X3832649Y-4744747D01*
X3835697Y-4746271D01*
X3837729Y-4748303D01*
X3839253Y-4751351D01*
X3839761Y-4754399D01*
X3839718Y-4754371D01*
X3839718Y-4834381D01*
X3839761Y-4834399D01*
X3839253Y-4837447D01*
X3837729Y-4840495D01*
X3835697Y-4842527D01*
X3832649Y-4844051D01*
X3829601Y-4844559D01*
X3829558Y-4844542D01*
X3739641Y-4844542D01*
G37*
D11*
G01*
X4660900Y-5143500D03*
G01*
X4660900Y-4889500D03*
G01*
X4406900Y-5143500D03*
G01*
X4406900Y-4889500D03*
G01*
X4152900Y-5143500D03*
G36*
X4062900Y-4989659D02*
G01*
X4059852Y-4989151D01*
X4056804Y-4987627D01*
X4054772Y-4985595D01*
X4053248Y-4982547D01*
X4052740Y-4979499D01*
X4052824Y-4979415D01*
X4052824Y-4799584D01*
X4052740Y-4799500D01*
X4053248Y-4796452D01*
X4054772Y-4793404D01*
X4056804Y-4791372D01*
X4059852Y-4789848D01*
X4062900Y-4789340D01*
X4062984Y-4789423D01*
X4242815Y-4789423D01*
X4242899Y-4789340D01*
X4245947Y-4789848D01*
X4248995Y-4791372D01*
X4251027Y-4793404D01*
X4252551Y-4796452D01*
X4253059Y-4799500D01*
X4252975Y-4799584D01*
X4252975Y-4979415D01*
X4253059Y-4979499D01*
X4252551Y-4982547D01*
X4251027Y-4985595D01*
X4248995Y-4987627D01*
X4245947Y-4989151D01*
X4242899Y-4989659D01*
X4242815Y-4989576D01*
X4062984Y-4989576D01*
G37*
G01*
X8623300Y-1333500D03*
G36*
X8533300Y-1687659D02*
G01*
X8530252Y-1687151D01*
X8527204Y-1685627D01*
X8525172Y-1683595D01*
X8523648Y-1680547D01*
X8523140Y-1677499D01*
X8523224Y-1677415D01*
X8523224Y-1497584D01*
X8523140Y-1497500D01*
X8523648Y-1494452D01*
X8525172Y-1491404D01*
X8527204Y-1489372D01*
X8530252Y-1487848D01*
X8533300Y-1487340D01*
X8533384Y-1487423D01*
X8713215Y-1487423D01*
X8713299Y-1487340D01*
X8716347Y-1487848D01*
X8719395Y-1489372D01*
X8721427Y-1491404D01*
X8722951Y-1494452D01*
X8723459Y-1497500D01*
X8723375Y-1497584D01*
X8723375Y-1677415D01*
X8723459Y-1677499D01*
X8722951Y-1680547D01*
X8721427Y-1683595D01*
X8719395Y-1685627D01*
X8716347Y-1687151D01*
X8713299Y-1687659D01*
X8713215Y-1687576D01*
X8533384Y-1687576D01*
G37*
G36*
X8400859Y-666048D02*
G01*
X8397811Y-665540D01*
X8394763Y-664016D01*
X8392731Y-661984D01*
X8391207Y-658936D01*
X8390699Y-655888D01*
X8390636Y-655828D01*
X8390636Y-556005D01*
X8390699Y-555889D01*
X8391207Y-552841D01*
X8392731Y-549793D01*
X8394763Y-547761D01*
X8397811Y-546237D01*
X8400859Y-545729D01*
X8400795Y-545845D01*
X8535924Y-545845D01*
X8535860Y-545729D01*
X8538908Y-546237D01*
X8541956Y-547761D01*
X8543988Y-549793D01*
X8545512Y-552841D01*
X8546020Y-555889D01*
X8546084Y-556005D01*
X8546084Y-655828D01*
X8546020Y-655888D01*
X8545512Y-658936D01*
X8543988Y-661984D01*
X8541956Y-664016D01*
X8538908Y-665540D01*
X8535860Y-666048D01*
X8535924Y-665987D01*
X8400795Y-665987D01*
G37*
G36*
X9040939Y-666048D02*
G01*
X9037891Y-665540D01*
X9034843Y-664016D01*
X9032811Y-661984D01*
X9031287Y-658936D01*
X9030779Y-655888D01*
X9030715Y-655828D01*
X9030715Y-556005D01*
X9030779Y-555889D01*
X9031287Y-552841D01*
X9032811Y-549793D01*
X9034843Y-547761D01*
X9037891Y-546237D01*
X9040939Y-545729D01*
X9040875Y-545845D01*
X9176004Y-545845D01*
X9175940Y-545729D01*
X9178988Y-546237D01*
X9182036Y-547761D01*
X9184068Y-549793D01*
X9185592Y-552841D01*
X9186100Y-555889D01*
X9186163Y-556005D01*
X9186163Y-655828D01*
X9186100Y-655888D01*
X9185592Y-658936D01*
X9184068Y-661984D01*
X9182036Y-664016D01*
X9178988Y-665540D01*
X9175940Y-666048D01*
X9176004Y-665987D01*
X9040875Y-665987D01*
G37*
G36*
X8573515Y-486155D02*
G01*
X8573414Y-486054D01*
X8570366Y-485546D01*
X8567318Y-484022D01*
X8565286Y-481990D01*
X8563762Y-478942D01*
X8563254Y-475894D01*
X8563356Y-475995D01*
X8563356Y-286004D01*
X8563254Y-285902D01*
X8563762Y-282854D01*
X8565286Y-279806D01*
X8567318Y-277774D01*
X8570366Y-276250D01*
X8573414Y-275742D01*
X8573515Y-275844D01*
X8763508Y-275844D01*
X8763406Y-275742D01*
X8766454Y-276250D01*
X8769502Y-277774D01*
X8771534Y-279806D01*
X8773058Y-282854D01*
X8773566Y-285902D01*
X8773668Y-286004D01*
X8773668Y-475995D01*
X8773566Y-475894D01*
X8773058Y-478942D01*
X8771534Y-481990D01*
X8769502Y-484022D01*
X8766454Y-485546D01*
X8763406Y-486054D01*
X8763508Y-486155D01*
G37*
G36*
X8813291Y-486155D02*
G01*
X8813413Y-486054D01*
X8810365Y-485546D01*
X8807317Y-484022D01*
X8805285Y-481990D01*
X8803761Y-478942D01*
X8803253Y-475894D01*
X8803131Y-475995D01*
X8803131Y-286004D01*
X8803253Y-285902D01*
X8803761Y-282854D01*
X8805285Y-279806D01*
X8807317Y-277774D01*
X8810365Y-276250D01*
X8813413Y-275742D01*
X8813291Y-275844D01*
X9003284Y-275844D01*
X9003405Y-275742D01*
X9006453Y-276250D01*
X9009501Y-277774D01*
X9011533Y-279806D01*
X9013057Y-282854D01*
X9013565Y-285902D01*
X9013443Y-286004D01*
X9013443Y-475995D01*
X9013565Y-475894D01*
X9013057Y-478942D01*
X9011533Y-481990D01*
X9009501Y-484022D01*
X9006453Y-485546D01*
X9003405Y-486054D01*
X9003284Y-486155D01*
G37*
G36*
X8638286Y-801115D02*
G01*
X8638400Y-801072D01*
X8635352Y-800564D01*
X8632304Y-799040D01*
X8630272Y-797008D01*
X8628748Y-793960D01*
X8628240Y-790912D01*
X8628125Y-790955D01*
X8628125Y-580897D01*
X8628240Y-580913D01*
X8628748Y-577865D01*
X8630272Y-574817D01*
X8632304Y-572785D01*
X8635352Y-571261D01*
X8638400Y-570753D01*
X8638286Y-570737D01*
X8678418Y-570737D01*
X8678400Y-570753D01*
X8681448Y-571261D01*
X8684496Y-572785D01*
X8686528Y-574817D01*
X8688052Y-577865D01*
X8688560Y-580913D01*
X8688577Y-580897D01*
X8688577Y-790955D01*
X8688560Y-790912D01*
X8688052Y-793960D01*
X8686528Y-797008D01*
X8684496Y-799040D01*
X8681448Y-800564D01*
X8678400Y-801072D01*
X8678418Y-801115D01*
G37*
G36*
X8703309Y-801115D02*
G01*
X8703398Y-801072D01*
X8700350Y-800564D01*
X8697302Y-799040D01*
X8695270Y-797008D01*
X8693746Y-793960D01*
X8693238Y-790912D01*
X8693150Y-790955D01*
X8693150Y-580897D01*
X8693238Y-580913D01*
X8693746Y-577865D01*
X8695270Y-574817D01*
X8697302Y-572785D01*
X8700350Y-571261D01*
X8703398Y-570753D01*
X8703309Y-570737D01*
X8743441Y-570737D01*
X8743398Y-570753D01*
X8746446Y-571261D01*
X8749494Y-572785D01*
X8751526Y-574817D01*
X8753050Y-577865D01*
X8753558Y-580913D01*
X8753602Y-580897D01*
X8753602Y-790955D01*
X8753558Y-790912D01*
X8753050Y-793960D01*
X8751526Y-797008D01*
X8749494Y-799040D01*
X8746446Y-800564D01*
X8743398Y-801072D01*
X8743441Y-801115D01*
G37*
G36*
X8768334Y-801115D02*
G01*
X8768400Y-801072D01*
X8765352Y-800564D01*
X8762304Y-799040D01*
X8760272Y-797008D01*
X8758748Y-793960D01*
X8758240Y-790912D01*
X8758174Y-790955D01*
X8758174Y-580897D01*
X8758240Y-580913D01*
X8758748Y-577865D01*
X8760272Y-574817D01*
X8762304Y-572785D01*
X8765352Y-571261D01*
X8768400Y-570753D01*
X8768334Y-570737D01*
X8808465Y-570737D01*
X8808399Y-570753D01*
X8811447Y-571261D01*
X8814495Y-572785D01*
X8816527Y-574817D01*
X8818051Y-577865D01*
X8818559Y-580913D01*
X8818625Y-580897D01*
X8818625Y-790955D01*
X8818559Y-790912D01*
X8818051Y-793960D01*
X8816527Y-797008D01*
X8814495Y-799040D01*
X8811447Y-800564D01*
X8808399Y-801072D01*
X8808465Y-801115D01*
G37*
G36*
X8833358Y-801115D02*
G01*
X8833401Y-801072D01*
X8830353Y-800564D01*
X8827305Y-799040D01*
X8825273Y-797008D01*
X8823749Y-793960D01*
X8823241Y-790912D01*
X8823197Y-790955D01*
X8823197Y-580897D01*
X8823241Y-580913D01*
X8823749Y-577865D01*
X8825273Y-574817D01*
X8827305Y-572785D01*
X8830353Y-571261D01*
X8833401Y-570753D01*
X8833358Y-570737D01*
X8873490Y-570737D01*
X8873401Y-570753D01*
X8876449Y-571261D01*
X8879497Y-572785D01*
X8881529Y-574817D01*
X8883053Y-577865D01*
X8883561Y-580913D01*
X8883650Y-580897D01*
X8883650Y-790955D01*
X8883561Y-790912D01*
X8883053Y-793960D01*
X8881529Y-797008D01*
X8879497Y-799040D01*
X8876449Y-800564D01*
X8873401Y-801072D01*
X8873490Y-801115D01*
G37*
G36*
X8898381Y-801115D02*
G01*
X8898399Y-801072D01*
X8895351Y-800564D01*
X8892303Y-799040D01*
X8890271Y-797008D01*
X8888747Y-793960D01*
X8888239Y-790912D01*
X8888222Y-790955D01*
X8888222Y-580897D01*
X8888239Y-580913D01*
X8888747Y-577865D01*
X8890271Y-574817D01*
X8892303Y-572785D01*
X8895351Y-571261D01*
X8898399Y-570753D01*
X8898381Y-570737D01*
X8938513Y-570737D01*
X8938399Y-570753D01*
X8941447Y-571261D01*
X8944495Y-572785D01*
X8946527Y-574817D01*
X8948051Y-577865D01*
X8948559Y-580913D01*
X8948674Y-580897D01*
X8948674Y-790955D01*
X8948559Y-790912D01*
X8948051Y-793960D01*
X8946527Y-797008D01*
X8944495Y-799040D01*
X8941447Y-800564D01*
X8938399Y-801072D01*
X8938513Y-801115D01*
G37*
D12*
G01*
X12438379Y-1459356D03*
G01*
X12188443Y-1459356D03*
G01*
X11988545Y-1459356D03*
G01*
X11738356Y-1459356D03*
D13*
G01*
X11390375Y-1182243D03*
G01*
X12790424Y-1182243D03*
D14*
G01*
X5588000Y-5270500D03*
G01*
X5588000Y-5016500D03*
G01*
X5588000Y-4762500D03*
G01*
X5588000Y-4508500D03*
G01*
X5588000Y-4254500D03*
G01*
X5588000Y-4000500D03*
G01*
X5588000Y-3746500D03*
G01*
X5588000Y-3492500D03*
G01*
X5588000Y-3238500D03*
G01*
X5588000Y-2984500D03*
G01*
X5588000Y-2730500D03*
G01*
X5588000Y-2476500D03*
G01*
X5588000Y-2222500D03*
G01*
X5588000Y-1968500D03*
G01*
X5588000Y-1714500D03*
G01*
X5588000Y-1460500D03*
G01*
X5588000Y-1206500D03*
G01*
X5588000Y-952500D03*
G01*
X5588000Y-698500D03*
G01*
X7874000Y-698500D03*
G01*
X7874000Y-952500D03*
G01*
X7874000Y-1206500D03*
G01*
X7874000Y-1460500D03*
G01*
X7874000Y-1714500D03*
G01*
X7874000Y-1968500D03*
G01*
X7874000Y-2222500D03*
G01*
X7874000Y-2476500D03*
G01*
X7874000Y-2730500D03*
G01*
X7874000Y-2984500D03*
G01*
X7874000Y-3238500D03*
G01*
X7874000Y-3492500D03*
G01*
X7874000Y-3746500D03*
G01*
X7874000Y-4000500D03*
G01*
X7874000Y-4254500D03*
G01*
X7874000Y-4508500D03*
G01*
X7874000Y-4762500D03*
G01*
X7874000Y-5016500D03*
G01*
X7874000Y-5270500D03*
G36*
X2647950Y-5388610D02*
G01*
X2644902Y-5388102D01*
X2641854Y-5386578D01*
X2639822Y-5384545D01*
X2638297Y-5381497D01*
X2637790Y-5378450D01*
X2637790Y-5238750D01*
X2638297Y-5235702D01*
X2639822Y-5232654D01*
X2641854Y-5230621D01*
X2644902Y-5229097D01*
X2647950Y-5228589D01*
X2787650Y-5228589D01*
X2790697Y-5229097D01*
X2793745Y-5230621D01*
X2795777Y-5232654D01*
X2797302Y-5235702D01*
X2797809Y-5238750D01*
X2797809Y-5378450D01*
X2797302Y-5381497D01*
X2795777Y-5384545D01*
X2793745Y-5386578D01*
X2790697Y-5388102D01*
X2787650Y-5388610D01*
G37*
D15*
G01*
X2463800Y-5308600D03*
G01*
X2209800Y-5308600D03*
G01*
X1955800Y-5308600D03*
G01*
X1701800Y-5308600D03*
G01*
X1447800Y-5308600D03*
G01*
X1193800Y-5308600D03*
G01*
X939800Y-5308600D03*
G01*
X939800Y-4546600D03*
G01*
X1193800Y-4546600D03*
G01*
X1447800Y-4546600D03*
G01*
X1701800Y-4546600D03*
G01*
X1955800Y-4546600D03*
G01*
X2209800Y-4546600D03*
G01*
X2463800Y-4546600D03*
G01*
X2717800Y-4546600D03*
G36*
X3206750Y-1134110D02*
G01*
X3203702Y-1133602D01*
X3200654Y-1132078D01*
X3198622Y-1130045D01*
X3197097Y-1126997D01*
X3196590Y-1123950D01*
X3196590Y-984250D01*
X3197097Y-981202D01*
X3198622Y-978154D01*
X3200654Y-976121D01*
X3203702Y-974597D01*
X3206750Y-974089D01*
X3346450Y-974089D01*
X3349497Y-974597D01*
X3352545Y-976121D01*
X3354577Y-978154D01*
X3356102Y-981202D01*
X3356609Y-984250D01*
X3356609Y-1123950D01*
X3356102Y-1126997D01*
X3354577Y-1130045D01*
X3352545Y-1132078D01*
X3349497Y-1133602D01*
X3346450Y-1134110D01*
G37*
G01*
X3530600Y-1054100D03*
G01*
X3784600Y-1054100D03*
G01*
X4038600Y-1054100D03*
G01*
X4292600Y-1054100D03*
G01*
X4546600Y-1054100D03*
G01*
X4800600Y-1054100D03*
G01*
X5054600Y-1054100D03*
G01*
X5054600Y-1816100D03*
G01*
X4800600Y-1816100D03*
G01*
X4546600Y-1816100D03*
G01*
X4292600Y-1816100D03*
G01*
X4038600Y-1816100D03*
G01*
X3784600Y-1816100D03*
G01*
X3530600Y-1816100D03*
G01*
X3276600Y-1816100D03*
G36*
X10001250Y-5388610D02*
G01*
X9998202Y-5388102D01*
X9995154Y-5386578D01*
X9993122Y-5384545D01*
X9991597Y-5381497D01*
X9991090Y-5378450D01*
X9991090Y-5238750D01*
X9991597Y-5235702D01*
X9993122Y-5232654D01*
X9995154Y-5230621D01*
X9998202Y-5229097D01*
X10001250Y-5228589D01*
X10140950Y-5228589D01*
X10143997Y-5229097D01*
X10147045Y-5230621D01*
X10149077Y-5232654D01*
X10150602Y-5235702D01*
X10151109Y-5238750D01*
X10151109Y-5378450D01*
X10150602Y-5381497D01*
X10149077Y-5384545D01*
X10147045Y-5386578D01*
X10143997Y-5388102D01*
X10140950Y-5388610D01*
G37*
G01*
X9817100Y-5308600D03*
G01*
X9563100Y-5308600D03*
G01*
X9309100Y-5308600D03*
G01*
X9055100Y-5308600D03*
G01*
X8801100Y-5308600D03*
G01*
X8547100Y-5308600D03*
G01*
X8293100Y-5308600D03*
G01*
X8293100Y-4546600D03*
G01*
X8547100Y-4546600D03*
G01*
X8801100Y-4546600D03*
G01*
X9055100Y-4546600D03*
G01*
X9309100Y-4546600D03*
G01*
X9563100Y-4546600D03*
G01*
X9817100Y-4546600D03*
G01*
X10071100Y-4546600D03*
G36*
X12426950Y-5388610D02*
G01*
X12423902Y-5388102D01*
X12420854Y-5386578D01*
X12418822Y-5384545D01*
X12417297Y-5381497D01*
X12416790Y-5378450D01*
X12416790Y-5238750D01*
X12417297Y-5235702D01*
X12418822Y-5232654D01*
X12420854Y-5230621D01*
X12423902Y-5229097D01*
X12426950Y-5228589D01*
X12566650Y-5228589D01*
X12569697Y-5229097D01*
X12572745Y-5230621D01*
X12574777Y-5232654D01*
X12576302Y-5235702D01*
X12576809Y-5238750D01*
X12576809Y-5378450D01*
X12576302Y-5381497D01*
X12574777Y-5384545D01*
X12572745Y-5386578D01*
X12569697Y-5388102D01*
X12566650Y-5388610D01*
G37*
G01*
X12242800Y-5308600D03*
G01*
X11988800Y-5308600D03*
G01*
X11734800Y-5308600D03*
G01*
X11480800Y-5308600D03*
G01*
X11226800Y-5308600D03*
G01*
X10972800Y-5308600D03*
G01*
X10718800Y-5308600D03*
G01*
X10718800Y-4546600D03*
G01*
X10972800Y-4546600D03*
G01*
X11226800Y-4546600D03*
G01*
X11480800Y-4546600D03*
G01*
X11734800Y-4546600D03*
G01*
X11988800Y-4546600D03*
G01*
X12242800Y-4546600D03*
G01*
X12496800Y-4546600D03*
G36*
X11728698Y-2439967D02*
G01*
X11725650Y-2439459D01*
X11722602Y-2437935D01*
X11720570Y-2435903D01*
X11719046Y-2432855D01*
X11718538Y-2429807D01*
X11718543Y-2429763D01*
X11718543Y-2309876D01*
X11718538Y-2309807D01*
X11719046Y-2306759D01*
X11720570Y-2303711D01*
X11722602Y-2301679D01*
X11725650Y-2300155D01*
X11728698Y-2299647D01*
X11728704Y-2299715D01*
X11918695Y-2299715D01*
X11918701Y-2299647D01*
X11921749Y-2300155D01*
X11924797Y-2301679D01*
X11926829Y-2303711D01*
X11928353Y-2306759D01*
X11928861Y-2309807D01*
X11928856Y-2309876D01*
X11928856Y-2429763D01*
X11928861Y-2429807D01*
X11928353Y-2432855D01*
X11926829Y-2435903D01*
X11924797Y-2437935D01*
X11921749Y-2439459D01*
X11918701Y-2439967D01*
X11918695Y-2439923D01*
X11728704Y-2439923D01*
G37*
G36*
X11728698Y-2119952D02*
G01*
X11725650Y-2119444D01*
X11722602Y-2117920D01*
X11720570Y-2115888D01*
X11719046Y-2112840D01*
X11718538Y-2109792D01*
X11718543Y-2109723D01*
X11718543Y-1989836D01*
X11718538Y-1989792D01*
X11719046Y-1986744D01*
X11720570Y-1983696D01*
X11722602Y-1981664D01*
X11725650Y-1980140D01*
X11728698Y-1979632D01*
X11728704Y-1979676D01*
X11918695Y-1979676D01*
X11918701Y-1979632D01*
X11921749Y-1980140D01*
X11924797Y-1981664D01*
X11926829Y-1983696D01*
X11928353Y-1986744D01*
X11928861Y-1989792D01*
X11928856Y-1989836D01*
X11928856Y-2109723D01*
X11928861Y-2109792D01*
X11928353Y-2112840D01*
X11926829Y-2115888D01*
X11924797Y-2117920D01*
X11921749Y-2119444D01*
X11918701Y-2119952D01*
X11918695Y-2119884D01*
X11728704Y-2119884D01*
G37*
G36*
X1898898Y-2376467D02*
G01*
X1895850Y-2375959D01*
X1892802Y-2374435D01*
X1890770Y-2372403D01*
X1889246Y-2369355D01*
X1888738Y-2366307D01*
X1888744Y-2366263D01*
X1888744Y-2246376D01*
X1888738Y-2246307D01*
X1889246Y-2243259D01*
X1890770Y-2240211D01*
X1892802Y-2238179D01*
X1895850Y-2236655D01*
X1898898Y-2236147D01*
X1898904Y-2236215D01*
X2088895Y-2236215D01*
X2088901Y-2236147D01*
X2091949Y-2236655D01*
X2094997Y-2238179D01*
X2097029Y-2240211D01*
X2098553Y-2243259D01*
X2099061Y-2246307D01*
X2099056Y-2246376D01*
X2099056Y-2366263D01*
X2099061Y-2366307D01*
X2098553Y-2369355D01*
X2097029Y-2372403D01*
X2094997Y-2374435D01*
X2091949Y-2375959D01*
X2088901Y-2376467D01*
X2088895Y-2376423D01*
X1898904Y-2376423D01*
G37*
G36*
X1898898Y-2056452D02*
G01*
X1895850Y-2055944D01*
X1892802Y-2054420D01*
X1890770Y-2052388D01*
X1889246Y-2049340D01*
X1888738Y-2046292D01*
X1888744Y-2046223D01*
X1888744Y-1926336D01*
X1888738Y-1926292D01*
X1889246Y-1923244D01*
X1890770Y-1920196D01*
X1892802Y-1918164D01*
X1895850Y-1916640D01*
X1898898Y-1916132D01*
X1898904Y-1916176D01*
X2088895Y-1916176D01*
X2088901Y-1916132D01*
X2091949Y-1916640D01*
X2094997Y-1918164D01*
X2097029Y-1920196D01*
X2098553Y-1923244D01*
X2099061Y-1926292D01*
X2099056Y-1926336D01*
X2099056Y-2046223D01*
X2099061Y-2046292D01*
X2098553Y-2049340D01*
X2097029Y-2052388D01*
X2094997Y-2054420D01*
X2091949Y-2055944D01*
X2088901Y-2056452D01*
X2088895Y-2056384D01*
X1898904Y-2056384D01*
G37*
G36*
X8669992Y-2187961D02*
G01*
X8666944Y-2187453D01*
X8663896Y-2185929D01*
X8661864Y-2183897D01*
X8660340Y-2180849D01*
X8659832Y-2177801D01*
X8659875Y-2177795D01*
X8659875Y-1987804D01*
X8659832Y-1987798D01*
X8660340Y-1984750D01*
X8661864Y-1981702D01*
X8663896Y-1979670D01*
X8666944Y-1978146D01*
X8669992Y-1977638D01*
X8670036Y-1977644D01*
X8789924Y-1977644D01*
X8789992Y-1977638D01*
X8793040Y-1978146D01*
X8796088Y-1979670D01*
X8798120Y-1981702D01*
X8799644Y-1984750D01*
X8800152Y-1987798D01*
X8800084Y-1987804D01*
X8800084Y-2177795D01*
X8800152Y-2177801D01*
X8799644Y-2180849D01*
X8798120Y-2183897D01*
X8796088Y-2185929D01*
X8793040Y-2187453D01*
X8789992Y-2187961D01*
X8789924Y-2187955D01*
X8670036Y-2187955D01*
G37*
G36*
X8990007Y-2187961D02*
G01*
X8986959Y-2187453D01*
X8983911Y-2185929D01*
X8981879Y-2183897D01*
X8980355Y-2180849D01*
X8979847Y-2177801D01*
X8979915Y-2177795D01*
X8979915Y-1987804D01*
X8979847Y-1987798D01*
X8980355Y-1984750D01*
X8981879Y-1981702D01*
X8983911Y-1979670D01*
X8986959Y-1978146D01*
X8990007Y-1977638D01*
X8990075Y-1977644D01*
X9109963Y-1977644D01*
X9110007Y-1977638D01*
X9113055Y-1978146D01*
X9116103Y-1979670D01*
X9118135Y-1981702D01*
X9119659Y-1984750D01*
X9120167Y-1987798D01*
X9120124Y-1987804D01*
X9120124Y-2177795D01*
X9120167Y-2177801D01*
X9119659Y-2180849D01*
X9118135Y-2183897D01*
X9116103Y-2185929D01*
X9113055Y-2187453D01*
X9110007Y-2187961D01*
X9109963Y-2187955D01*
X8990075Y-2187955D01*
G37*
G36*
X2716207Y-2226061D02*
G01*
X2713159Y-2225553D01*
X2710111Y-2224029D01*
X2708079Y-2221997D01*
X2706555Y-2218949D01*
X2706047Y-2215901D01*
X2706115Y-2215895D01*
X2706115Y-2025904D01*
X2706047Y-2025898D01*
X2706555Y-2022850D01*
X2708079Y-2019802D01*
X2710111Y-2017770D01*
X2713159Y-2016246D01*
X2716207Y-2015738D01*
X2716275Y-2015744D01*
X2836163Y-2015744D01*
X2836207Y-2015738D01*
X2839255Y-2016246D01*
X2842303Y-2017770D01*
X2844335Y-2019802D01*
X2845859Y-2022850D01*
X2846367Y-2025898D01*
X2846324Y-2025904D01*
X2846324Y-2215895D01*
X2846367Y-2215901D01*
X2845859Y-2218949D01*
X2844335Y-2221997D01*
X2842303Y-2224029D01*
X2839255Y-2225553D01*
X2836207Y-2226061D01*
X2836163Y-2226055D01*
X2716275Y-2226055D01*
G37*
G36*
X2396192Y-2226061D02*
G01*
X2393144Y-2225553D01*
X2390096Y-2224029D01*
X2388064Y-2221997D01*
X2386540Y-2218949D01*
X2386032Y-2215901D01*
X2386075Y-2215895D01*
X2386075Y-2025904D01*
X2386032Y-2025898D01*
X2386540Y-2022850D01*
X2388064Y-2019802D01*
X2390096Y-2017770D01*
X2393144Y-2016246D01*
X2396192Y-2015738D01*
X2396236Y-2015744D01*
X2516124Y-2015744D01*
X2516192Y-2015738D01*
X2519240Y-2016246D01*
X2522288Y-2017770D01*
X2524320Y-2019802D01*
X2525844Y-2022850D01*
X2526352Y-2025898D01*
X2526284Y-2025904D01*
X2526284Y-2215895D01*
X2526352Y-2215901D01*
X2525844Y-2218949D01*
X2524320Y-2221997D01*
X2522288Y-2224029D01*
X2519240Y-2225553D01*
X2516192Y-2226061D01*
X2516124Y-2226055D01*
X2396236Y-2226055D01*
G37*
D16*
G01*
X9521697Y-2336800D03*
G01*
X9521697Y-814831D03*
G01*
X10287000Y-812800D03*
G01*
X10795000Y-2336800D03*
D14*
G01*
X1866900Y-2804160D03*
G01*
X2120900Y-2867660D03*
G01*
X2319020Y-3040379D03*
G01*
X2410459Y-3289300D03*
G01*
X2379979Y-3548379D03*
G01*
X2230120Y-3764279D03*
G01*
X1998979Y-3886200D03*
G01*
X1734820Y-3886200D03*
G01*
X1503679Y-3764279D03*
G01*
X1353820Y-3548379D03*
G01*
X1323339Y-3286760D03*
G01*
X1414779Y-3040379D03*
G01*
X1612900Y-2867660D03*
G01*
X4546600Y-2804160D03*
G01*
X4800600Y-2867660D03*
G01*
X4998720Y-3040379D03*
G01*
X5090159Y-3289300D03*
G01*
X5059679Y-3548379D03*
G01*
X4909820Y-3764279D03*
G01*
X4678679Y-3886200D03*
G01*
X4414520Y-3886200D03*
G01*
X4183379Y-3764279D03*
G01*
X4033520Y-3548379D03*
G01*
X4003040Y-3286760D03*
G01*
X4094479Y-3040379D03*
G01*
X4292600Y-2867660D03*
G01*
X8902700Y-2804160D03*
G01*
X9156700Y-2867660D03*
G01*
X9354820Y-3040379D03*
G01*
X9446259Y-3289300D03*
G01*
X9415779Y-3548379D03*
G01*
X9265920Y-3764279D03*
G01*
X9034779Y-3886200D03*
G01*
X8770620Y-3886200D03*
G01*
X8539479Y-3764279D03*
G01*
X8389620Y-3548379D03*
G01*
X8359140Y-3286760D03*
G01*
X8450579Y-3040379D03*
G01*
X8648700Y-2867660D03*
G01*
X11582400Y-2804160D03*
G01*
X11836400Y-2867660D03*
G01*
X12034520Y-3040379D03*
G01*
X12125959Y-3289300D03*
G01*
X12095479Y-3548379D03*
G01*
X11945620Y-3764279D03*
G01*
X11714479Y-3886200D03*
G01*
X11450320Y-3886200D03*
G01*
X11219179Y-3764279D03*
G01*
X11069320Y-3548379D03*
G01*
X11038840Y-3286760D03*
G01*
X11130279Y-3040379D03*
G01*
X11328400Y-2867660D03*
M02*
