G04 Layer: TopLayer*
G04 EasyEDA v6.5.9, 2022-07-24 14:24:57*
G04 f987cc21297445cdbeb1743f52e6d1e3,55142d4dae0f4ab4aabfa0547b1eedf3,10*
G04 Gerber Generator version 0.2*
G04 Scale: 100 percent, Rotated: No, Reflected: No *
G04 Dimensions in millimeters *
G04 leading zeros omitted , absolute positions ,4 integer and 5 decimal *
%FSLAX45Y45*%
%MOMM*%

%ADD10C,0.2540*%
%ADD11C,1.0000*%
%ADD12C,0.5000*%
%ADD13C,1.8000*%
%ADD14C,1.7000*%
%ADD15C,3.2000*%
%ADD16C,1.5240*%
%ADD17C,1.3970*%
%ADD18C,2.5400*%
%ADD19C,0.6096*%
%ADD20C,0.6200*%
%ADD21C,0.9500*%
%ADD22C,0.0124*%

%LPD*%
D10*
X11696700Y-4165600D02*
G01*
X11988800Y-4457700D01*
X11988800Y-4546600D01*
X11468100Y-4203700D02*
G01*
X11734800Y-4470400D01*
X11734800Y-4546600D01*
X11226800Y-4546600D02*
G01*
X11226800Y-4140200D01*
X11341100Y-4064000D01*
X11633200Y-4064000D01*
X11722100Y-3975100D01*
X11722100Y-3893820D01*
X11714479Y-3886200D01*
X12242800Y-5308600D02*
G01*
X12242800Y-5016500D01*
X12306300Y-4953000D01*
X12661900Y-4953000D01*
X12979400Y-4635500D01*
X12979400Y-3632200D01*
X12636500Y-3289300D01*
X12125959Y-3289300D01*
X12814300Y-4102100D02*
G01*
X12814300Y-3886200D01*
X12476479Y-3548379D01*
X12095479Y-3548379D01*
X9055100Y-4714239D02*
G01*
X9331959Y-4991100D01*
X10045700Y-4991100D01*
X7874000Y-5270500D02*
G01*
X8001000Y-5270500D01*
X8191500Y-5080000D01*
X8597900Y-5080000D01*
X9055100Y-4714239D01*
X9055100Y-4546600D01*
X9055100Y-4572093D02*
G01*
X9055100Y-4699000D01*
X10198100Y-3340100D02*
G01*
X10147300Y-3289300D01*
X9446257Y-3289300D01*
X9156700Y-2565400D02*
G01*
X9347200Y-2565400D01*
X9779000Y-2997200D01*
X9779000Y-3149600D01*
X6985000Y-342900D02*
G01*
X4978400Y-342900D01*
X4800600Y-520700D01*
X4800600Y-1054100D01*
X4546600Y-1054100D02*
G01*
X4851400Y-1358900D01*
X5194300Y-1358900D01*
X5549900Y-1714500D01*
X5588000Y-1714500D01*
X1447800Y-4546600D02*
G01*
X1447800Y-4470400D01*
X1562100Y-4356100D01*
X1841500Y-4356100D01*
X1998979Y-4198620D01*
X1998979Y-3886200D01*
X1503679Y-3764279D02*
G01*
X1498600Y-3769360D01*
X1498600Y-4203700D01*
X1536700Y-4241800D01*
X1587500Y-4241800D01*
X1734820Y-3886200D02*
G01*
X1714500Y-3906520D01*
X1714500Y-4152900D01*
X1765300Y-4203700D01*
X2319020Y-3040379D02*
G01*
X2326640Y-3048000D01*
X2540000Y-3048000D01*
X2717800Y-3225800D01*
X2717800Y-4546600D01*
X3276600Y-1816100D02*
G01*
X3276600Y-1955800D01*
X3327400Y-2006600D01*
X4445000Y-2006600D01*
X4998720Y-2560320D01*
X4998720Y-3040379D01*
X7874000Y-3746500D02*
G01*
X8063738Y-3748531D01*
X8063738Y-3937000D02*
G01*
X8063738Y-5207762D01*
X11214100Y-5753100D02*
G01*
X11099800Y-5867400D01*
X7848600Y-5867400D01*
X7454900Y-5473700D01*
X7454900Y-4356100D01*
X7810500Y-4000500D01*
X7874000Y-4000500D01*
X7874000Y-5016500D02*
G01*
X7696200Y-5194300D01*
X7696200Y-5384800D01*
X7937500Y-5626100D01*
X11506200Y-5626100D01*
X11734800Y-5397500D01*
X11734800Y-5308600D01*
X7874000Y-3492500D02*
G01*
X7835900Y-3492500D01*
X7226300Y-4102100D01*
X7226300Y-4114800D01*
X7874000Y-3238500D02*
G01*
X7467600Y-3238500D01*
X5168900Y-2197100D02*
G01*
X5257800Y-2108200D01*
X5257800Y-1714500D01*
X5143500Y-1587500D01*
X3619500Y-1587500D01*
X3530600Y-1498600D01*
X3530600Y-1054100D01*
X9415779Y-3548379D02*
G01*
X9618979Y-3548379D01*
X10261600Y-4191000D01*
X10261600Y-5118100D01*
X10071100Y-5308600D01*
X7874000Y-4762500D02*
G01*
X7569200Y-5067300D01*
X7569200Y-5410200D01*
X7912100Y-5753100D01*
X10401300Y-5753100D01*
X4038600Y-2628900D02*
G01*
X3759200Y-2908300D01*
X3759200Y-3619500D01*
X3903979Y-3764279D01*
X4183379Y-3764279D01*
X3784600Y-2489200D02*
G01*
X3568700Y-2705100D01*
X3568700Y-3886200D01*
X3759200Y-4076700D01*
X4279900Y-4076700D01*
X4414514Y-3942079D01*
X4414514Y-3886200D01*
X8801100Y-4546600D02*
G01*
X8801100Y-4178300D01*
X9034779Y-3944620D01*
X9034779Y-3886200D01*
X9118600Y-4191000D02*
G01*
X9271000Y-4343400D01*
X9309100Y-4381500D01*
X9309100Y-4546600D01*
X9563100Y-4546600D02*
G01*
X9525000Y-4508500D01*
X9525000Y-4356100D01*
X9232900Y-4064000D01*
X9169400Y-4064000D01*
D11*
X10795000Y-1955800D02*
G01*
X10795000Y-1181100D01*
X10744200Y-1181100D02*
G01*
X10795000Y-1181100D01*
X9040875Y-1322323D02*
G01*
X9182100Y-1181100D01*
X10744200Y-1181100D01*
D10*
X10415076Y-5499100D02*
G01*
X10477500Y-5436676D01*
X10477500Y-2578100D01*
X10033000Y-2133600D01*
X10033000Y-1422400D01*
D12*
X8623300Y-1333500D02*
G01*
X8623300Y-977900D01*
X8636000Y-965200D01*
D10*
X6578600Y-482600D02*
G01*
X5321300Y-482600D01*
X5130800Y-673100D01*
X4800600Y-1816100D02*
G01*
X4800600Y-2057400D01*
X5308600Y-2565400D01*
X5308600Y-3606800D01*
X5151120Y-3764279D01*
X4909820Y-3764279D01*
X1193800Y-5308600D02*
G01*
X1574800Y-5689600D01*
X5803900Y-5689600D01*
X6134100Y-5359400D01*
X6134100Y-3213100D01*
X5651500Y-2730500D01*
X5588000Y-2730500D01*
X4406900Y-4889500D02*
G01*
X4406900Y-4686300D01*
X4711700Y-4686300D01*
X5588000Y-3746500D01*
X4152900Y-5143500D02*
G01*
X4152900Y-4889500D01*
X3632200Y-4737100D02*
G01*
X3416300Y-4953000D01*
X1930400Y-4953000D01*
X1701800Y-4724400D01*
X11582400Y-2374900D02*
G01*
X11582400Y-2804160D01*
X3040176Y-2159000D02*
G01*
X4330700Y-2159000D01*
X4546600Y-2374900D01*
X4546600Y-2804160D01*
X5588000Y-1968500D02*
G01*
X5715000Y-2095500D01*
X8063738Y-2095500D01*
X8063738Y-3937000D01*
X1701800Y-4546600D02*
G01*
X1701800Y-4724400D01*
X1473200Y-4953000D01*
X889000Y-4953000D01*
X711200Y-5130800D01*
X711200Y-5486400D01*
X1054100Y-5829300D01*
X5905500Y-5829300D01*
X6248400Y-5486400D01*
X6248400Y-2095500D01*
X6338061Y-2095500D01*
X11480800Y-5308600D02*
G01*
X11480800Y-5461000D01*
X11442700Y-5499100D01*
X9093200Y-5499100D01*
X9055100Y-5461000D01*
X9055100Y-5308600D01*
X10655300Y-4991100D02*
G01*
X11176000Y-4991100D01*
X11480800Y-4686300D01*
X11480800Y-4546600D01*
X11832336Y-3502913D02*
G01*
X12103100Y-3721100D01*
X12115800Y-3733800D01*
X12115800Y-4813300D01*
X11607800Y-4813300D01*
X11480800Y-4686300D01*
X9152636Y-3502913D02*
G01*
X9461500Y-3759200D01*
X9690100Y-3987800D01*
X9690100Y-4991100D01*
X4796536Y-3502913D02*
G01*
X4796536Y-3598163D01*
X4737100Y-3657600D01*
X4737100Y-3721100D01*
X4851400Y-3924300D01*
X4851400Y-4064000D01*
X4521200Y-4394200D01*
X2116836Y-3502913D02*
G01*
X2400300Y-3733800D01*
X2400300Y-4165600D01*
X2337427Y-4228472D01*
X2337427Y-4953000D01*
X1616913Y-3202812D02*
G01*
X1473200Y-3200400D01*
X1193800Y-3098800D01*
X1414779Y-3040379D02*
G01*
X1414779Y-2636520D01*
X1498600Y-2552700D01*
X2540000Y-2552700D01*
X2933700Y-2946400D01*
X2933700Y-4686300D01*
X2832100Y-4787900D01*
X2552700Y-4787900D01*
X2463800Y-4699000D01*
X2463800Y-4546600D01*
X1447800Y-5308600D02*
G01*
X1676400Y-5537200D01*
X5740400Y-5537200D01*
X5943600Y-5334000D01*
X5943600Y-3302000D01*
X5626100Y-2984500D01*
X5588000Y-2984500D01*
X4796612Y-3202812D02*
G01*
X4796612Y-3217087D01*
X4673600Y-3340100D01*
X1727200Y-3390900D02*
G01*
X1616963Y-3502913D01*
D12*
X8636000Y-965200D02*
G01*
X8509000Y-1092200D01*
X8280400Y-1092200D01*
X8229600Y-1041400D01*
X8229600Y-584200D01*
X8064500Y-419100D01*
X7556500Y-419100D01*
X7277100Y-698500D01*
X5588000Y-698500D01*
D10*
X4296613Y-3502812D02*
G01*
X4460087Y-3502812D01*
X4521200Y-3441700D01*
X4521200Y-3162300D01*
X4597400Y-3086100D01*
X1701800Y-5308600D02*
G01*
X1701800Y-5194300D01*
X1752600Y-5143500D01*
X4152900Y-5143500D01*
X4191000Y-2336800D02*
G01*
X3517900Y-2336800D01*
X3327400Y-2527300D01*
X3327400Y-3962400D01*
X3644900Y-4279900D01*
X4470400Y-4279900D01*
X4678685Y-4071620D01*
X4678685Y-3886200D01*
X5130800Y-3962400D02*
G01*
X4597400Y-4495800D01*
X3581400Y-4495800D01*
X3136900Y-4051300D01*
X3136900Y-2755900D01*
X2705100Y-2324100D01*
X2705100Y-1447800D01*
X3098800Y-1054100D01*
X3276600Y-1054100D01*
X4296663Y-3202686D02*
G01*
X4296663Y-3158236D01*
X4445000Y-3009900D01*
X4445000Y-2908300D01*
X4381500Y-2705100D01*
X4381500Y-2349500D01*
X4279900Y-2247900D01*
X3175000Y-2247900D01*
X3136900Y-2286000D01*
X2946400Y-2286000D01*
X2882900Y-2222500D01*
X2882900Y-1612900D01*
X3009900Y-1485900D01*
X11201400Y-1600200D02*
G01*
X11468100Y-1600200D01*
X11633200Y-1765300D01*
X12103100Y-1765300D01*
X12192000Y-1676400D01*
X12192000Y-1503629D01*
X8652763Y-3202686D02*
G01*
X8648700Y-3048000D01*
X8394700Y-2794000D01*
X8394700Y-2387600D01*
X8915400Y-1866900D01*
X9588500Y-1866900D01*
X10033000Y-1422400D01*
X9017000Y-3213100D02*
G01*
X9027286Y-3202812D01*
X9152712Y-3202812D01*
X8652763Y-3502913D02*
G01*
X8802877Y-3352800D01*
X9245600Y-3352800D01*
X9283700Y-3390900D01*
X9537700Y-3441700D01*
X9867900Y-3441700D01*
X9956800Y-3530600D01*
X10375900Y-3530600D01*
X11332413Y-3202812D02*
G01*
X11201400Y-3213100D01*
X10960100Y-3111500D01*
X10477500Y-3110829D01*
X8623300Y-1587500D02*
G01*
X8585200Y-1587500D01*
X8089900Y-2070100D01*
X8089900Y-2070100D01*
X8063738Y-2095500D01*
X10668000Y-3403600D02*
G01*
X11188700Y-3403600D01*
X11239500Y-3352800D01*
X11682475Y-3352800D01*
X11832336Y-3202686D01*
D11*
X10795000Y-1955800D02*
G01*
X10795000Y-2336800D01*
D12*
X8636000Y-965200D02*
G01*
X8648700Y-977900D01*
X9372600Y-977900D01*
X9521697Y-814831D01*
X9521697Y-814831D01*
D11*
X8623300Y-1587500D02*
G01*
X8775700Y-1587500D01*
X9040875Y-1322323D01*
D10*
X965200Y-6007100D02*
G01*
X469900Y-5511800D01*
X469900Y-3175000D01*
X1651000Y-1993900D01*
X1778000Y-1993900D01*
X8839200Y-2362200D02*
G01*
X8839200Y-2717800D01*
X8902700Y-2804160D01*
X2324100Y-2374900D02*
G01*
X2324100Y-2070100D01*
X2463800Y-1930400D01*
X2463800Y-1130300D01*
X2616200Y-1003300D01*
X2116912Y-3202812D02*
G01*
X2116912Y-3086100D01*
G36*
X1541906Y-3152800D02*
G01*
X1691919Y-3152800D01*
X1691919Y-3252825D01*
X1541906Y-3252825D01*
G37*
G36*
X1541906Y-3452799D02*
G01*
X1691919Y-3452799D01*
X1691919Y-3552799D01*
X1541906Y-3552799D01*
G37*
G36*
X2041906Y-3452799D02*
G01*
X2191918Y-3452799D01*
X2191918Y-3552799D01*
X2041906Y-3552799D01*
G37*
G36*
X2041906Y-3152800D02*
G01*
X2191918Y-3152800D01*
X2191918Y-3252800D01*
X2041906Y-3252800D01*
G37*
G36*
X4221606Y-3152800D02*
G01*
X4371619Y-3152800D01*
X4371619Y-3252825D01*
X4221606Y-3252825D01*
G37*
G36*
X4221606Y-3452799D02*
G01*
X4371619Y-3452799D01*
X4371619Y-3552799D01*
X4221606Y-3552799D01*
G37*
G36*
X4721606Y-3452799D02*
G01*
X4871618Y-3452799D01*
X4871618Y-3552799D01*
X4721606Y-3552799D01*
G37*
G36*
X4721606Y-3152800D02*
G01*
X4871618Y-3152800D01*
X4871618Y-3252800D01*
X4721606Y-3252800D01*
G37*
G36*
X8577706Y-3152800D02*
G01*
X8727719Y-3152800D01*
X8727719Y-3252825D01*
X8577706Y-3252825D01*
G37*
G36*
X8577706Y-3452799D02*
G01*
X8727719Y-3452799D01*
X8727719Y-3552799D01*
X8577706Y-3552799D01*
G37*
G36*
X9077706Y-3452799D02*
G01*
X9227718Y-3452799D01*
X9227718Y-3552799D01*
X9077706Y-3552799D01*
G37*
G36*
X9077706Y-3152800D02*
G01*
X9227718Y-3152800D01*
X9227718Y-3252800D01*
X9077706Y-3252800D01*
G37*
G36*
X11257406Y-3152800D02*
G01*
X11407419Y-3152800D01*
X11407419Y-3252825D01*
X11257406Y-3252825D01*
G37*
G36*
X11257406Y-3452799D02*
G01*
X11407419Y-3452799D01*
X11407419Y-3552799D01*
X11257406Y-3552799D01*
G37*
G36*
X11757406Y-3452799D02*
G01*
X11907418Y-3452799D01*
X11907418Y-3552799D01*
X11757406Y-3552799D01*
G37*
G36*
X11757406Y-3152800D02*
G01*
X11907418Y-3152800D01*
X11907418Y-3252800D01*
X11757406Y-3252800D01*
G37*
D13*
G01*
X4660900Y-5143500D03*
G01*
X4660900Y-4889500D03*
G01*
X4406900Y-5143500D03*
G01*
X4406900Y-4889500D03*
G01*
X4152900Y-5143500D03*
G36*
X4062900Y-4979499D02*
G01*
X4242899Y-4979499D01*
X4242899Y-4799500D01*
X4062900Y-4799500D01*
G37*
G01*
X8623300Y-1333500D03*
G36*
X8713299Y-1677499D02*
G01*
X8713299Y-1497500D01*
X8533300Y-1497500D01*
X8533300Y-1677499D01*
G37*
D14*
G01*
X12438379Y-1459356D03*
G01*
X12188443Y-1459356D03*
G01*
X11988545Y-1459356D03*
G01*
X11738356Y-1459356D03*
D15*
G01*
X11390375Y-1182243D03*
G01*
X12790424Y-1182243D03*
D16*
G01*
X5588000Y-5270500D03*
G01*
X5588000Y-5016500D03*
G01*
X5588000Y-4762500D03*
G01*
X5588000Y-4508500D03*
G01*
X5588000Y-4254500D03*
G01*
X5588000Y-4000500D03*
G01*
X5588000Y-3746500D03*
G01*
X5588000Y-3492500D03*
G01*
X5588000Y-3238500D03*
G01*
X5588000Y-2984500D03*
G01*
X5588000Y-2730500D03*
G01*
X5588000Y-2476500D03*
G01*
X5588000Y-2222500D03*
G01*
X5588000Y-1968500D03*
G01*
X5588000Y-1714500D03*
G01*
X5588000Y-1460500D03*
G01*
X5588000Y-1206500D03*
G01*
X5588000Y-952500D03*
G01*
X5588000Y-698500D03*
G01*
X7874000Y-698500D03*
G01*
X7874000Y-952500D03*
G01*
X7874000Y-1206500D03*
G01*
X7874000Y-1460500D03*
G01*
X7874000Y-1714500D03*
G01*
X7874000Y-1968500D03*
G01*
X7874000Y-2222500D03*
G01*
X7874000Y-2476500D03*
G01*
X7874000Y-2730500D03*
G01*
X7874000Y-2984500D03*
G01*
X7874000Y-3238500D03*
G01*
X7874000Y-3492500D03*
G01*
X7874000Y-3746500D03*
G01*
X7874000Y-4000500D03*
G01*
X7874000Y-4254500D03*
G01*
X7874000Y-4508500D03*
G01*
X7874000Y-4762500D03*
G01*
X7874000Y-5016500D03*
G01*
X7874000Y-5270500D03*
G36*
X2787650Y-5238750D02*
G01*
X2647950Y-5238750D01*
X2647950Y-5378450D01*
X2787650Y-5378450D01*
G37*
D17*
G01*
X2463800Y-5308600D03*
G01*
X2209800Y-5308600D03*
G01*
X1955800Y-5308600D03*
G01*
X1701800Y-5308600D03*
G01*
X1447800Y-5308600D03*
G01*
X1193800Y-5308600D03*
G01*
X939800Y-5308600D03*
G01*
X939800Y-4546600D03*
G01*
X1193800Y-4546600D03*
G01*
X1447800Y-4546600D03*
G01*
X1701800Y-4546600D03*
G01*
X1955800Y-4546600D03*
G01*
X2209800Y-4546600D03*
G01*
X2463800Y-4546600D03*
G01*
X2717800Y-4546600D03*
G36*
X3206750Y-1123950D02*
G01*
X3346450Y-1123950D01*
X3346450Y-984250D01*
X3206750Y-984250D01*
G37*
G01*
X3530600Y-1054100D03*
G01*
X3784600Y-1054100D03*
G01*
X4038600Y-1054100D03*
G01*
X4292600Y-1054100D03*
G01*
X4546600Y-1054100D03*
G01*
X4800600Y-1054100D03*
G01*
X5054600Y-1054100D03*
G01*
X5054600Y-1816100D03*
G01*
X4800600Y-1816100D03*
G01*
X4546600Y-1816100D03*
G01*
X4292600Y-1816100D03*
G01*
X4038600Y-1816100D03*
G01*
X3784600Y-1816100D03*
G01*
X3530600Y-1816100D03*
G01*
X3276600Y-1816100D03*
G36*
X10140950Y-5238750D02*
G01*
X10001250Y-5238750D01*
X10001250Y-5378450D01*
X10140950Y-5378450D01*
G37*
G01*
X9817100Y-5308600D03*
G01*
X9563100Y-5308600D03*
G01*
X9309100Y-5308600D03*
G01*
X9055100Y-5308600D03*
G01*
X8801100Y-5308600D03*
G01*
X8547100Y-5308600D03*
G01*
X8293100Y-5308600D03*
G01*
X8293100Y-4546600D03*
G01*
X8547100Y-4546600D03*
G01*
X8801100Y-4546600D03*
G01*
X9055100Y-4546600D03*
G01*
X9309100Y-4546600D03*
G01*
X9563100Y-4546600D03*
G01*
X9817100Y-4546600D03*
G01*
X10071100Y-4546600D03*
G36*
X12566650Y-5238750D02*
G01*
X12426950Y-5238750D01*
X12426950Y-5378450D01*
X12566650Y-5378450D01*
G37*
G01*
X12242800Y-5308600D03*
G01*
X11988800Y-5308600D03*
G01*
X11734800Y-5308600D03*
G01*
X11480800Y-5308600D03*
G01*
X11226800Y-5308600D03*
G01*
X10972800Y-5308600D03*
G01*
X10718800Y-5308600D03*
G01*
X10718800Y-4546600D03*
G01*
X10972800Y-4546600D03*
G01*
X11226800Y-4546600D03*
G01*
X11480800Y-4546600D03*
G01*
X11734800Y-4546600D03*
G01*
X11988800Y-4546600D03*
G01*
X12242800Y-4546600D03*
G01*
X12496800Y-4546600D03*
D18*
G01*
X9521697Y-2336800D03*
G01*
X9521697Y-814831D03*
G01*
X10287000Y-812800D03*
G01*
X10795000Y-2336800D03*
D16*
G01*
X1866900Y-2804160D03*
G01*
X2120900Y-2867660D03*
G01*
X2319020Y-3040379D03*
G01*
X2410459Y-3289300D03*
G01*
X2379979Y-3548379D03*
G01*
X2230120Y-3764279D03*
G01*
X1998979Y-3886200D03*
G01*
X1734820Y-3886200D03*
G01*
X1503679Y-3764279D03*
G01*
X1353820Y-3548379D03*
G01*
X1323339Y-3286760D03*
G01*
X1414779Y-3040379D03*
G01*
X1612900Y-2867660D03*
G01*
X4546600Y-2804160D03*
G01*
X4800600Y-2867660D03*
G01*
X4998720Y-3040379D03*
G01*
X5090159Y-3289300D03*
G01*
X5059679Y-3548379D03*
G01*
X4909820Y-3764279D03*
G01*
X4678679Y-3886200D03*
G01*
X4414520Y-3886200D03*
G01*
X4183379Y-3764279D03*
G01*
X4033520Y-3548379D03*
G01*
X4003040Y-3286760D03*
G01*
X4094479Y-3040379D03*
G01*
X4292600Y-2867660D03*
G01*
X8902700Y-2804160D03*
G01*
X9156700Y-2867660D03*
G01*
X9354820Y-3040379D03*
G01*
X9446259Y-3289300D03*
G01*
X9415779Y-3548379D03*
G01*
X9265920Y-3764279D03*
G01*
X9034779Y-3886200D03*
G01*
X8770620Y-3886200D03*
G01*
X8539479Y-3764279D03*
G01*
X8389620Y-3548379D03*
G01*
X8359140Y-3286760D03*
G01*
X8450579Y-3040379D03*
G01*
X8648700Y-2867660D03*
G01*
X11582400Y-2804160D03*
G01*
X11836400Y-2867660D03*
G01*
X12034520Y-3040379D03*
G01*
X12125959Y-3289300D03*
G01*
X12095479Y-3548379D03*
G01*
X11945620Y-3764279D03*
G01*
X11714479Y-3886200D03*
G01*
X11450320Y-3886200D03*
G01*
X11219179Y-3764279D03*
G01*
X11069320Y-3548379D03*
G01*
X11038840Y-3286760D03*
G01*
X11130279Y-3040379D03*
G01*
X11328400Y-2867660D03*
D19*
G01*
X8839200Y-2362200D03*
G01*
X3040176Y-2159000D03*
G01*
X1778000Y-1993900D03*
G01*
X11582400Y-2374900D03*
G01*
X10668000Y-3403600D03*
G01*
X10375900Y-3530600D03*
G01*
X10198100Y-3340100D03*
G01*
X9017000Y-3213100D03*
G01*
X3009900Y-1485900D03*
G01*
X4191000Y-2336800D03*
G01*
X4597400Y-3086100D03*
G01*
X1727200Y-3390900D03*
G01*
X4673600Y-3340100D03*
G01*
X2616200Y-1003300D03*
G01*
X1193800Y-3098800D03*
G01*
X4521200Y-4394200D03*
G01*
X11201400Y-1600200D03*
G01*
X5130800Y-673100D03*
G01*
X10795000Y-1181100D03*
G01*
X10655300Y-4991100D03*
G01*
X10045700Y-4991100D03*
G01*
X10033000Y-1422400D03*
G01*
X10415066Y-5499100D03*
G01*
X9156700Y-2565400D03*
G01*
X9779000Y-3149600D03*
G01*
X6985000Y-342900D03*
G01*
X6578600Y-482600D03*
G01*
X1587500Y-4241800D03*
G01*
X1765300Y-4203700D03*
G01*
X11214100Y-5753100D03*
G01*
X7226300Y-4114800D03*
G01*
X7467600Y-3238500D03*
G01*
X10401300Y-5753100D03*
G01*
X5168900Y-2197100D03*
G01*
X5130800Y-3962400D03*
G01*
X4038600Y-2628900D03*
G01*
X3784600Y-2489200D03*
G01*
X9118600Y-4191000D03*
G01*
X9169400Y-4064000D03*
G01*
X12814300Y-4102100D03*
G01*
X8636000Y-965200D03*
D20*
G01*
X3632200Y-4737100D03*
D19*
G01*
X11468100Y-4203700D03*
G01*
X11696700Y-4165600D03*
G01*
X965200Y-6007100D03*
G01*
X2324100Y-2374900D03*
G01*
X2116912Y-3086100D03*
D21*
X8505901Y-435899D02*
G01*
X8505901Y-325899D01*
X9070898Y-435899D02*
G01*
X9070898Y-325899D01*
M02*
