G04 Layer: BottomPasteMaskLayer*
G04 EasyEDA v6.5.9, 2022-07-24 14:24:57*
G04 f987cc21297445cdbeb1743f52e6d1e3,55142d4dae0f4ab4aabfa0547b1eedf3,10*
G04 Gerber Generator version 0.2*
G04 Scale: 100 percent, Rotated: No, Reflected: No *
G04 Dimensions in millimeters *
G04 leading zeros omitted , absolute positions ,4 integer and 5 decimal *
%FSLAX45Y45*%
%MOMM*%

%ADD10C,0.0001*%

%LPD*%
G36*
X2381801Y-2573500D02*
G01*
X2381801Y-2493500D01*
X2291798Y-2493500D01*
X2291798Y-2573500D01*
G37*
G36*
X2381801Y-2713499D02*
G01*
X2381801Y-2633499D01*
X2291798Y-2633499D01*
X2291798Y-2713499D01*
G37*
G36*
X9570001Y-554499D02*
G01*
X9570001Y-474499D01*
X9479998Y-474499D01*
X9479998Y-554499D01*
G37*
G36*
X9570001Y-414500D02*
G01*
X9570001Y-334500D01*
X9479998Y-334500D01*
X9479998Y-414500D01*
G37*
G36*
X10432498Y-4957300D02*
G01*
X10432498Y-5037300D01*
X10522501Y-5037300D01*
X10522501Y-4957300D01*
G37*
G36*
X10432498Y-5097299D02*
G01*
X10432498Y-5177299D01*
X10522501Y-5177299D01*
X10522501Y-5097299D01*
G37*
G36*
X10267398Y-4957300D02*
G01*
X10267398Y-5037300D01*
X10357401Y-5037300D01*
X10357401Y-4957300D01*
G37*
G36*
X10267398Y-5097299D02*
G01*
X10267398Y-5177299D01*
X10357401Y-5177299D01*
X10357401Y-5097299D01*
G37*
G36*
X5353601Y-1024399D02*
G01*
X5353601Y-944399D01*
X5263598Y-944399D01*
X5263598Y-1024399D01*
G37*
G36*
X5353601Y-884400D02*
G01*
X5353601Y-804400D01*
X5263598Y-804400D01*
X5263598Y-884400D01*
G37*
G36*
X3739598Y-4614400D02*
G01*
X3739598Y-4694400D01*
X3829601Y-4694400D01*
X3829601Y-4614400D01*
G37*
G36*
X3739598Y-4754399D02*
G01*
X3739598Y-4834399D01*
X3829601Y-4834399D01*
X3829601Y-4754399D01*
G37*
G36*
X8535860Y-555889D02*
G01*
X8400859Y-555889D01*
X8400859Y-655888D01*
X8535860Y-655888D01*
G37*
G36*
X9175940Y-555889D02*
G01*
X9040939Y-555889D01*
X9040939Y-655888D01*
X9175940Y-655888D01*
G37*
G36*
X8573414Y-285902D02*
G01*
X8573414Y-475894D01*
X8763406Y-475894D01*
X8763406Y-285902D01*
G37*
G36*
X8813413Y-285902D02*
G01*
X8813413Y-475894D01*
X9003405Y-475894D01*
X9003405Y-285902D01*
G37*
G36*
X8678400Y-790912D02*
G01*
X8678400Y-580913D01*
X8638400Y-580913D01*
X8638400Y-790912D01*
G37*
G36*
X8743398Y-790912D02*
G01*
X8743398Y-580913D01*
X8703398Y-580913D01*
X8703398Y-790912D01*
G37*
G36*
X8808399Y-790912D02*
G01*
X8808399Y-580913D01*
X8768400Y-580913D01*
X8768400Y-790912D01*
G37*
G36*
X8873401Y-790912D02*
G01*
X8873401Y-580913D01*
X8833401Y-580913D01*
X8833401Y-790912D01*
G37*
G36*
X8938399Y-790912D02*
G01*
X8938399Y-580913D01*
X8898399Y-580913D01*
X8898399Y-790912D01*
G37*
G36*
X11728698Y-2309807D02*
G01*
X11728698Y-2429807D01*
X11918701Y-2429807D01*
X11918701Y-2309807D01*
G37*
G36*
X11728698Y-1989792D02*
G01*
X11728698Y-2109792D01*
X11918701Y-2109792D01*
X11918701Y-1989792D01*
G37*
G36*
X1898898Y-2246307D02*
G01*
X1898898Y-2366307D01*
X2088901Y-2366307D01*
X2088901Y-2246307D01*
G37*
G36*
X1898898Y-1926292D02*
G01*
X1898898Y-2046292D01*
X2088901Y-2046292D01*
X2088901Y-1926292D01*
G37*
G36*
X8789992Y-1987798D02*
G01*
X8669992Y-1987798D01*
X8669992Y-2177801D01*
X8789992Y-2177801D01*
G37*
G36*
X9110007Y-1987798D02*
G01*
X8990007Y-1987798D01*
X8990007Y-2177801D01*
X9110007Y-2177801D01*
G37*
G36*
X2716207Y-2215901D02*
G01*
X2836207Y-2215901D01*
X2836207Y-2025898D01*
X2716207Y-2025898D01*
G37*
G36*
X2396192Y-2215901D02*
G01*
X2516192Y-2215901D01*
X2516192Y-2025898D01*
X2396192Y-2025898D01*
G37*
M02*
