G04 Layer: BottomLayer*
G04 EasyEDA v6.5.9, 2022-07-24 14:24:57*
G04 f987cc21297445cdbeb1743f52e6d1e3,55142d4dae0f4ab4aabfa0547b1eedf3,10*
G04 Gerber Generator version 0.2*
G04 Scale: 100 percent, Rotated: No, Reflected: No *
G04 Dimensions in millimeters *
G04 leading zeros omitted , absolute positions ,4 integer and 5 decimal *
%FSLAX45Y45*%
%MOMM*%

%ADD10C,0.2540*%
%ADD11C,1.0000*%
%ADD12C,0.5000*%
%ADD13C,0.4000*%
%ADD14C,1.8000*%
%ADD15C,1.7000*%
%ADD16C,3.2000*%
%ADD17C,1.5240*%
%ADD18C,1.3970*%
%ADD19C,2.5400*%
%ADD20C,0.6096*%
%ADD21C,0.6200*%
%ADD22C,0.9500*%
%ADD23C,0.0107*%

%LPD*%
D10*
X10972800Y-4546600D02*
G01*
X10972800Y-4432300D01*
X11049000Y-4356100D01*
X11772900Y-4356100D01*
X11963400Y-4165600D01*
X11963400Y-3782060D01*
X11945620Y-3764279D01*
X11696700Y-4165600D02*
G01*
X11450320Y-3919220D01*
X11450320Y-3886200D01*
X11468100Y-4203700D02*
G01*
X11219179Y-3954779D01*
X11219179Y-3764279D01*
X12242800Y-4546600D02*
G01*
X12242800Y-4673600D01*
X12382500Y-4813300D01*
X12573000Y-4813300D01*
X12674600Y-4711700D01*
X12674600Y-3098800D01*
X12141200Y-2565400D01*
X11328400Y-2565400D01*
X11061700Y-2832100D01*
X11061700Y-2971800D01*
X11130279Y-3040379D01*
X12034520Y-3040379D02*
G01*
X12311379Y-3040379D01*
X12407900Y-3136900D01*
X12407900Y-4457700D01*
X12496800Y-4546600D01*
X10071100Y-4546600D02*
G01*
X10071100Y-4381500D01*
X9994900Y-4305300D01*
X9994900Y-3149600D01*
X9817100Y-2971800D01*
X9423400Y-2971800D01*
X9354820Y-3040379D01*
X8450579Y-3040379D02*
G01*
X8450579Y-2738120D01*
X8623300Y-2565400D01*
X9156700Y-2565400D01*
X6985000Y-342900D02*
G01*
X7353300Y-342900D01*
X7556500Y-546100D01*
X7556500Y-1282700D01*
X7734300Y-1460500D01*
X7874000Y-1460500D01*
X5588000Y-698500D02*
G01*
X5359400Y-698500D01*
X5308600Y-749300D01*
X5308600Y-836091D01*
X1587500Y-4241800D02*
G01*
X1701800Y-4356100D01*
X1892300Y-4356100D01*
X1955800Y-4419600D01*
X1955800Y-4546600D01*
X1765300Y-4203700D02*
G01*
X1790700Y-4229100D01*
X2070100Y-4229100D01*
X2209800Y-4368800D01*
X2209800Y-4546600D01*
X1193800Y-4546600D02*
G01*
X1193800Y-4368800D01*
X1473200Y-4089400D01*
X2108200Y-4089400D01*
X2230120Y-3967479D01*
X2230120Y-3764279D01*
X2410459Y-3289300D02*
G01*
X3263900Y-4142739D01*
X3263900Y-5168900D01*
X2895600Y-5537200D01*
X2590800Y-5537200D01*
X2463800Y-5410200D01*
X2463800Y-5308600D01*
X1323339Y-3286760D02*
G01*
X1320800Y-3289300D01*
X1104900Y-3289300D01*
X660400Y-3733800D01*
X660400Y-5118100D01*
X850900Y-5308600D01*
X939800Y-5308600D01*
X2379979Y-3548379D02*
G01*
X3048000Y-4216400D01*
X3048000Y-5003800D01*
X2743200Y-5308600D01*
X2717800Y-5308600D01*
X939800Y-4546600D02*
G01*
X939800Y-3898900D01*
X1290320Y-3548379D01*
X1353820Y-3548379D01*
X4003040Y-3286760D02*
G01*
X3327400Y-2578100D01*
X3327400Y-2184400D01*
X3073400Y-1930400D01*
X3073400Y-1625600D01*
X3213100Y-1485900D01*
X4851400Y-1485900D01*
X5054600Y-1282700D01*
X5054600Y-1054100D01*
X7226300Y-4114800D02*
G01*
X7226300Y-5575300D01*
X7543800Y-5892800D01*
X11531600Y-5892800D01*
X11988800Y-5435600D01*
X11988800Y-5308600D01*
X9563100Y-5308600D02*
G01*
X9563100Y-5384800D01*
X9169400Y-5778500D01*
X7607300Y-5778500D01*
X7340600Y-5511800D01*
X7340600Y-2946400D01*
X7810500Y-2476500D01*
X7874000Y-2476500D01*
X7467600Y-3238500D02*
G01*
X7480300Y-3251200D01*
X7480300Y-5461000D01*
X7683500Y-5664200D01*
X9029700Y-5664200D01*
X9309100Y-5384800D01*
X9309100Y-5308600D01*
X8801100Y-5308600D02*
G01*
X8801100Y-5384800D01*
X8636000Y-5549900D01*
X7734300Y-5549900D01*
X7556500Y-5372100D01*
X7556500Y-2959100D01*
X7785100Y-2730500D01*
X7874000Y-2730500D01*
X8547100Y-5308600D02*
G01*
X8547100Y-5372100D01*
X8458200Y-5461000D01*
X7810500Y-5461000D01*
X7696200Y-5346700D01*
X7696200Y-3086100D01*
X7797800Y-2984500D01*
X7874000Y-2984500D01*
X10401300Y-5753100D02*
G01*
X10528300Y-5753100D01*
X10972800Y-5308600D01*
X11226800Y-5308600D02*
G01*
X11214100Y-5321300D01*
X11214100Y-5753100D01*
X8293100Y-5308600D02*
G01*
X8115300Y-5130800D01*
X8115300Y-3530600D01*
X8359140Y-3286760D01*
X4292600Y-1816100D02*
G01*
X4533900Y-1574800D01*
X5194300Y-1574800D01*
X5588000Y-1968500D01*
X5090159Y-3289300D02*
G01*
X5168900Y-3210560D01*
X5168900Y-2197100D01*
X5059679Y-3548379D02*
G01*
X5130800Y-3619500D01*
X5130800Y-3962400D01*
X4038600Y-1816100D02*
G01*
X4038600Y-2628900D01*
X3784600Y-1816100D02*
G01*
X3784600Y-2489200D01*
X4094479Y-3040379D02*
G01*
X3530600Y-2476500D01*
X3530600Y-1816100D01*
X8539485Y-3764279D02*
G01*
X8547100Y-3771900D01*
X8547100Y-3924300D01*
X8547100Y-3975100D01*
X8763000Y-4191000D01*
X9118600Y-4191000D01*
X9169400Y-4064000D02*
G01*
X8864594Y-4064000D01*
X8770614Y-3970020D01*
X8770614Y-3886200D01*
X8389620Y-3548379D02*
G01*
X8293100Y-3644900D01*
X8293100Y-4546600D01*
X12814300Y-4102100D02*
G01*
X12814300Y-5219700D01*
X12725400Y-5308600D01*
X12496800Y-5308600D01*
X8547100Y-4546600D02*
G01*
X8547100Y-4394200D01*
X8610600Y-4330700D01*
X9245600Y-4330700D01*
X9359900Y-4216400D01*
X9359900Y-3835400D01*
X9265920Y-3764279D01*
D11*
X8908415Y-380888D02*
G01*
X8668410Y-380888D01*
X8668410Y-380888D02*
G01*
X8505901Y-380888D01*
X9070898Y-380888D02*
G01*
X8908415Y-380888D01*
X9070898Y-380888D02*
G01*
X9108440Y-418429D01*
X9108440Y-605881D01*
X10795000Y-1181100D02*
G01*
X10796140Y-1182240D01*
X11390373Y-1182240D01*
D10*
X4292600Y-1054100D02*
G01*
X4292600Y-1003300D01*
X4459731Y-836168D01*
X5308600Y-836168D01*
X4191000Y-749300D02*
G01*
X4038600Y-901700D01*
X4038600Y-1054100D01*
X5130800Y-673100D02*
G01*
X4267200Y-673100D01*
X4191000Y-749300D01*
X5588000Y-2222500D02*
G01*
X5778500Y-2222500D01*
X5892800Y-2108200D01*
X5892800Y-673100D01*
X5702300Y-482600D01*
X3962400Y-482600D01*
X3784600Y-660400D01*
X3784600Y-1054100D01*
D11*
X8505901Y-380888D02*
G01*
X8468359Y-418429D01*
X8468359Y-605881D01*
D12*
X8658402Y-685901D02*
G01*
X8636000Y-708304D01*
X8636000Y-965200D01*
X8918447Y-685800D02*
G01*
X9080500Y-685800D01*
X9108440Y-657860D01*
X9108440Y-605789D01*
D10*
X5054600Y-1816100D02*
G01*
X5321300Y-2082800D01*
X5321300Y-4025900D01*
X5105400Y-4241800D01*
X4051300Y-4241800D01*
X3848100Y-4038600D01*
X3848100Y-3721100D01*
X4020820Y-3548379D01*
X4033520Y-3548379D01*
D13*
X8918447Y-685800D02*
G01*
X8915400Y-688847D01*
X8915400Y-838200D01*
D10*
X1955800Y-5308600D02*
G01*
X1955800Y-5537200D01*
X2235200Y-5816600D01*
X5651500Y-5816600D01*
X6146800Y-5321300D01*
X6146800Y-2908300D01*
X5715000Y-2476500D01*
X5588000Y-2476500D01*
X2209800Y-5308600D02*
G01*
X2209800Y-5499100D01*
X2387600Y-5676900D01*
X5588000Y-5676900D01*
X5943600Y-5321300D01*
X5943600Y-3594100D01*
X5588000Y-3238500D01*
X5588000Y-3492500D02*
G01*
X5791200Y-3695700D01*
X5791200Y-5295900D01*
X5613400Y-5473700D01*
X4508500Y-5473700D01*
X4406900Y-5372100D01*
X4406900Y-5143500D01*
X4660900Y-5143500D02*
G01*
X4660900Y-4889500D01*
X4660900Y-4889500D02*
G01*
X4660900Y-4699000D01*
X4610100Y-4648200D01*
X3721100Y-4648200D01*
X3632200Y-4737100D01*
X2019300Y-2305212D02*
G01*
X1987387Y-2305212D01*
X1866900Y-2425700D01*
X1866900Y-2804160D01*
X5308600Y-984402D02*
G01*
X5308600Y-1689105D01*
X5309356Y-1689862D01*
X10045700Y-4991100D02*
G01*
X10655300Y-4991100D01*
X10415066Y-5499100D02*
G01*
X10312400Y-5396433D01*
X10312400Y-5137302D01*
X10312400Y-5137302D02*
G01*
X10477500Y-5137289D01*
X8723401Y-685901D02*
G01*
X8723401Y-938301D01*
X9486900Y-1701800D01*
X11887200Y-1701800D01*
X11988545Y-1600454D01*
X11988545Y-1459356D01*
X8788400Y-685800D02*
G01*
X8788400Y-889000D01*
X9499600Y-1600200D01*
X11201400Y-1600200D01*
X9779000Y-3149600D02*
G01*
X9779000Y-4381500D01*
X9817100Y-4419600D01*
X9817100Y-4546600D01*
X4521200Y-4394200D02*
G01*
X4521200Y-4648200D01*
X1193800Y-3098800D02*
G01*
X823147Y-3098800D01*
X6578600Y-482600D02*
G01*
X6819900Y-723900D01*
X6819900Y-1612900D01*
X7429500Y-2222500D01*
X7874000Y-2222500D01*
X4152900Y-4889500D02*
G01*
X4057789Y-4794389D01*
X3784600Y-4794389D01*
X4191000Y-2336800D02*
G01*
X4394200Y-2336800D01*
X4546600Y-2184400D01*
X4546600Y-1816100D01*
X1701800Y-5308600D02*
G01*
X1701800Y-5422900D01*
X1562100Y-5562600D01*
X774700Y-5562600D01*
X495300Y-5283200D01*
X495300Y-3429000D01*
X1447800Y-2476500D01*
X1447800Y-2082800D01*
X2222500Y-1308100D01*
X4203700Y-1308100D01*
X4292600Y-1219200D01*
X4292600Y-1054100D01*
X3009900Y-1485900D02*
G01*
X3009900Y-1308100D01*
X4597400Y-3086100D02*
G01*
X4622800Y-2997200D01*
X4724400Y-2679700D01*
X4724400Y-1968500D01*
X4673600Y-1917700D01*
X4673600Y-1739900D01*
X4737100Y-1676400D01*
X5130800Y-1676400D01*
X5422900Y-1968500D01*
X5422900Y-2349500D01*
X7962900Y-2349500D01*
X8242300Y-2628900D01*
X8242300Y-3073400D01*
X8521700Y-3225800D01*
X8521700Y-3263900D01*
X8547100Y-3289300D01*
X8978900Y-3289300D01*
X8978900Y-3251200D01*
X9017000Y-3213100D01*
X10718800Y-4546600D02*
G01*
X10718800Y-3949700D01*
X11069320Y-3599179D01*
X11069320Y-3548379D01*
X10718800Y-5308600D02*
G01*
X10718800Y-5219700D01*
X10858500Y-5080000D01*
X10858500Y-4965700D01*
X10541000Y-4648200D01*
X10541000Y-3784600D01*
X11038840Y-3286760D01*
X10198100Y-3340100D02*
G01*
X10261600Y-3403600D01*
X10261600Y-4724400D01*
X10185400Y-4800600D01*
X9906000Y-4800600D01*
X9817100Y-4889500D01*
X9817100Y-5308600D01*
X10375900Y-3530600D02*
G01*
X10502900Y-3403600D01*
X10668000Y-3403600D01*
D11*
X11390375Y-1182243D02*
G01*
X12161265Y-1182243D01*
X12438379Y-1459356D01*
D12*
X10033000Y-1422400D02*
G01*
X10069956Y-1459356D01*
X11738356Y-1459356D01*
D11*
X10795000Y-2336800D02*
G01*
X10799823Y-2336800D01*
X9525000Y-514502D02*
G01*
X9525000Y-811529D01*
X9521697Y-814831D01*
D12*
X10033000Y-1422400D02*
G01*
X10033000Y-1257300D01*
X9521697Y-814831D01*
D11*
X10299700Y-736600D02*
G01*
X10299700Y-825500D01*
X10655300Y-825500D01*
X10795000Y-965200D01*
X10795000Y-1181100D01*
X10287000Y-812800D02*
G01*
X10287000Y-812800D01*
X9867900Y-381000D01*
X9070847Y-381000D01*
D10*
X11976100Y-2044700D02*
G01*
X13042900Y-3111500D01*
X13042900Y-5295900D01*
X12319000Y-6019800D01*
X7467600Y-6019800D01*
X7023100Y-5575300D01*
X6235700Y-5575300D01*
X5803900Y-6007100D01*
X965200Y-6007100D01*
X11976100Y-2044700D02*
G01*
X11554968Y-2044700D01*
X10983468Y-2616200D01*
X10172700Y-2616200D01*
X9893300Y-2336800D01*
X9521697Y-2336800D01*
X11582400Y-2374900D02*
G01*
X11587500Y-2369799D01*
X11823700Y-2369799D01*
X1778000Y-1993900D02*
G01*
X1785614Y-1986285D01*
X1993900Y-1986285D01*
X2456185Y-2120900D02*
G01*
X2321570Y-1986285D01*
X1993900Y-1986285D01*
X3040176Y-2159000D02*
G01*
X3002076Y-2120900D01*
X2776199Y-2120900D01*
X8839200Y-2362200D02*
G01*
X8730000Y-2253000D01*
X8730000Y-2082800D01*
X9050014Y-2082800D02*
G01*
X9203913Y-2082800D01*
X9271000Y-2082800D01*
X9521697Y-2336800D01*
X4673600Y-3340100D02*
G01*
X4318000Y-3365500D01*
X3860800Y-3441700D01*
X3060700Y-3441700D01*
X2717800Y-3098800D01*
X2540000Y-3098800D01*
X2235200Y-3213100D01*
X2082800Y-3390900D01*
X1727200Y-3390900D01*
X7874000Y-1714500D02*
G01*
X7467600Y-1714500D01*
X7239000Y-1485900D01*
X7239000Y-863600D01*
X6718300Y-342900D01*
X3276600Y-342900D01*
X2616200Y-1003300D01*
X2324100Y-2374900D02*
G01*
X2336800Y-2387600D01*
X2336800Y-2533489D01*
X2116912Y-3086100D02*
G01*
X2116912Y-3086100D01*
X2336800Y-2819400D01*
X2336800Y-2673492D01*
G36*
X2381801Y-2573500D02*
G01*
X2381801Y-2493500D01*
X2291798Y-2493500D01*
X2291798Y-2573500D01*
G37*
G36*
X2381801Y-2713499D02*
G01*
X2381801Y-2633499D01*
X2291798Y-2633499D01*
X2291798Y-2713499D01*
G37*
G36*
X9570001Y-554499D02*
G01*
X9570001Y-474499D01*
X9479998Y-474499D01*
X9479998Y-554499D01*
G37*
G36*
X9570001Y-414500D02*
G01*
X9570001Y-334500D01*
X9479998Y-334500D01*
X9479998Y-414500D01*
G37*
G36*
X10432498Y-4957300D02*
G01*
X10432498Y-5037300D01*
X10522501Y-5037300D01*
X10522501Y-4957300D01*
G37*
G36*
X10432498Y-5097299D02*
G01*
X10432498Y-5177299D01*
X10522501Y-5177299D01*
X10522501Y-5097299D01*
G37*
G36*
X10267398Y-4957300D02*
G01*
X10267398Y-5037300D01*
X10357401Y-5037300D01*
X10357401Y-4957300D01*
G37*
G36*
X10267398Y-5097299D02*
G01*
X10267398Y-5177299D01*
X10357401Y-5177299D01*
X10357401Y-5097299D01*
G37*
G36*
X5353601Y-1024399D02*
G01*
X5353601Y-944399D01*
X5263598Y-944399D01*
X5263598Y-1024399D01*
G37*
G36*
X5353601Y-884400D02*
G01*
X5353601Y-804400D01*
X5263598Y-804400D01*
X5263598Y-884400D01*
G37*
G36*
X3739598Y-4614400D02*
G01*
X3739598Y-4694400D01*
X3829601Y-4694400D01*
X3829601Y-4614400D01*
G37*
G36*
X3739598Y-4754399D02*
G01*
X3739598Y-4834399D01*
X3829601Y-4834399D01*
X3829601Y-4754399D01*
G37*
G36*
X8535860Y-555889D02*
G01*
X8400859Y-555889D01*
X8400859Y-655888D01*
X8535860Y-655888D01*
G37*
G36*
X9175940Y-555889D02*
G01*
X9040939Y-555889D01*
X9040939Y-655888D01*
X9175940Y-655888D01*
G37*
G36*
X8573414Y-285902D02*
G01*
X8573414Y-475894D01*
X8763406Y-475894D01*
X8763406Y-285902D01*
G37*
G36*
X8813413Y-285902D02*
G01*
X8813413Y-475894D01*
X9003405Y-475894D01*
X9003405Y-285902D01*
G37*
G36*
X8678400Y-790912D02*
G01*
X8678400Y-580913D01*
X8638400Y-580913D01*
X8638400Y-790912D01*
G37*
G36*
X8743398Y-790912D02*
G01*
X8743398Y-580913D01*
X8703398Y-580913D01*
X8703398Y-790912D01*
G37*
G36*
X8808399Y-790912D02*
G01*
X8808399Y-580913D01*
X8768400Y-580913D01*
X8768400Y-790912D01*
G37*
G36*
X8873401Y-790912D02*
G01*
X8873401Y-580913D01*
X8833401Y-580913D01*
X8833401Y-790912D01*
G37*
G36*
X8938399Y-790912D02*
G01*
X8938399Y-580913D01*
X8898399Y-580913D01*
X8898399Y-790912D01*
G37*
G36*
X11728698Y-2309807D02*
G01*
X11728698Y-2429807D01*
X11918701Y-2429807D01*
X11918701Y-2309807D01*
G37*
G36*
X11728698Y-1989792D02*
G01*
X11728698Y-2109792D01*
X11918701Y-2109792D01*
X11918701Y-1989792D01*
G37*
G36*
X1898898Y-2246307D02*
G01*
X1898898Y-2366307D01*
X2088901Y-2366307D01*
X2088901Y-2246307D01*
G37*
G36*
X1898898Y-1926292D02*
G01*
X1898898Y-2046292D01*
X2088901Y-2046292D01*
X2088901Y-1926292D01*
G37*
G36*
X8789992Y-1987798D02*
G01*
X8669992Y-1987798D01*
X8669992Y-2177801D01*
X8789992Y-2177801D01*
G37*
G36*
X9110007Y-1987798D02*
G01*
X8990007Y-1987798D01*
X8990007Y-2177801D01*
X9110007Y-2177801D01*
G37*
G36*
X2716207Y-2215901D02*
G01*
X2836207Y-2215901D01*
X2836207Y-2025898D01*
X2716207Y-2025898D01*
G37*
G36*
X2396192Y-2215901D02*
G01*
X2516192Y-2215901D01*
X2516192Y-2025898D01*
X2396192Y-2025898D01*
G37*
D14*
G01*
X4660900Y-5143500D03*
G01*
X4660900Y-4889500D03*
G01*
X4406900Y-5143500D03*
G01*
X4406900Y-4889500D03*
G01*
X4152900Y-5143500D03*
G36*
X4062900Y-4979499D02*
G01*
X4242899Y-4979499D01*
X4242899Y-4799500D01*
X4062900Y-4799500D01*
G37*
G01*
X8623300Y-1333500D03*
G36*
X8713299Y-1677499D02*
G01*
X8713299Y-1497500D01*
X8533300Y-1497500D01*
X8533300Y-1677499D01*
G37*
D15*
G01*
X12438379Y-1459356D03*
G01*
X12188443Y-1459356D03*
G01*
X11988545Y-1459356D03*
G01*
X11738356Y-1459356D03*
D16*
G01*
X11390375Y-1182243D03*
G01*
X12790424Y-1182243D03*
D17*
G01*
X5588000Y-5270500D03*
G01*
X5588000Y-5016500D03*
G01*
X5588000Y-4762500D03*
G01*
X5588000Y-4508500D03*
G01*
X5588000Y-4254500D03*
G01*
X5588000Y-4000500D03*
G01*
X5588000Y-3746500D03*
G01*
X5588000Y-3492500D03*
G01*
X5588000Y-3238500D03*
G01*
X5588000Y-2984500D03*
G01*
X5588000Y-2730500D03*
G01*
X5588000Y-2476500D03*
G01*
X5588000Y-2222500D03*
G01*
X5588000Y-1968500D03*
G01*
X5588000Y-1714500D03*
G01*
X5588000Y-1460500D03*
G01*
X5588000Y-1206500D03*
G01*
X5588000Y-952500D03*
G01*
X5588000Y-698500D03*
G01*
X7874000Y-698500D03*
G01*
X7874000Y-952500D03*
G01*
X7874000Y-1206500D03*
G01*
X7874000Y-1460500D03*
G01*
X7874000Y-1714500D03*
G01*
X7874000Y-1968500D03*
G01*
X7874000Y-2222500D03*
G01*
X7874000Y-2476500D03*
G01*
X7874000Y-2730500D03*
G01*
X7874000Y-2984500D03*
G01*
X7874000Y-3238500D03*
G01*
X7874000Y-3492500D03*
G01*
X7874000Y-3746500D03*
G01*
X7874000Y-4000500D03*
G01*
X7874000Y-4254500D03*
G01*
X7874000Y-4508500D03*
G01*
X7874000Y-4762500D03*
G01*
X7874000Y-5016500D03*
G01*
X7874000Y-5270500D03*
G36*
X2787650Y-5238750D02*
G01*
X2647950Y-5238750D01*
X2647950Y-5378450D01*
X2787650Y-5378450D01*
G37*
D18*
G01*
X2463800Y-5308600D03*
G01*
X2209800Y-5308600D03*
G01*
X1955800Y-5308600D03*
G01*
X1701800Y-5308600D03*
G01*
X1447800Y-5308600D03*
G01*
X1193800Y-5308600D03*
G01*
X939800Y-5308600D03*
G01*
X939800Y-4546600D03*
G01*
X1193800Y-4546600D03*
G01*
X1447800Y-4546600D03*
G01*
X1701800Y-4546600D03*
G01*
X1955800Y-4546600D03*
G01*
X2209800Y-4546600D03*
G01*
X2463800Y-4546600D03*
G01*
X2717800Y-4546600D03*
G36*
X3206750Y-1123950D02*
G01*
X3346450Y-1123950D01*
X3346450Y-984250D01*
X3206750Y-984250D01*
G37*
G01*
X3530600Y-1054100D03*
G01*
X3784600Y-1054100D03*
G01*
X4038600Y-1054100D03*
G01*
X4292600Y-1054100D03*
G01*
X4546600Y-1054100D03*
G01*
X4800600Y-1054100D03*
G01*
X5054600Y-1054100D03*
G01*
X5054600Y-1816100D03*
G01*
X4800600Y-1816100D03*
G01*
X4546600Y-1816100D03*
G01*
X4292600Y-1816100D03*
G01*
X4038600Y-1816100D03*
G01*
X3784600Y-1816100D03*
G01*
X3530600Y-1816100D03*
G01*
X3276600Y-1816100D03*
G36*
X10140950Y-5238750D02*
G01*
X10001250Y-5238750D01*
X10001250Y-5378450D01*
X10140950Y-5378450D01*
G37*
G01*
X9817100Y-5308600D03*
G01*
X9563100Y-5308600D03*
G01*
X9309100Y-5308600D03*
G01*
X9055100Y-5308600D03*
G01*
X8801100Y-5308600D03*
G01*
X8547100Y-5308600D03*
G01*
X8293100Y-5308600D03*
G01*
X8293100Y-4546600D03*
G01*
X8547100Y-4546600D03*
G01*
X8801100Y-4546600D03*
G01*
X9055100Y-4546600D03*
G01*
X9309100Y-4546600D03*
G01*
X9563100Y-4546600D03*
G01*
X9817100Y-4546600D03*
G01*
X10071100Y-4546600D03*
G36*
X12566650Y-5238750D02*
G01*
X12426950Y-5238750D01*
X12426950Y-5378450D01*
X12566650Y-5378450D01*
G37*
G01*
X12242800Y-5308600D03*
G01*
X11988800Y-5308600D03*
G01*
X11734800Y-5308600D03*
G01*
X11480800Y-5308600D03*
G01*
X11226800Y-5308600D03*
G01*
X10972800Y-5308600D03*
G01*
X10718800Y-5308600D03*
G01*
X10718800Y-4546600D03*
G01*
X10972800Y-4546600D03*
G01*
X11226800Y-4546600D03*
G01*
X11480800Y-4546600D03*
G01*
X11734800Y-4546600D03*
G01*
X11988800Y-4546600D03*
G01*
X12242800Y-4546600D03*
G01*
X12496800Y-4546600D03*
D19*
G01*
X9521697Y-2336800D03*
G01*
X9521697Y-814831D03*
G01*
X10287000Y-812800D03*
G01*
X10795000Y-2336800D03*
D17*
G01*
X1866900Y-2804160D03*
G01*
X2120900Y-2867660D03*
G01*
X2319020Y-3040379D03*
G01*
X2410459Y-3289300D03*
G01*
X2379979Y-3548379D03*
G01*
X2230120Y-3764279D03*
G01*
X1998979Y-3886200D03*
G01*
X1734820Y-3886200D03*
G01*
X1503679Y-3764279D03*
G01*
X1353820Y-3548379D03*
G01*
X1323339Y-3286760D03*
G01*
X1414779Y-3040379D03*
G01*
X1612900Y-2867660D03*
G01*
X4546600Y-2804160D03*
G01*
X4800600Y-2867660D03*
G01*
X4998720Y-3040379D03*
G01*
X5090159Y-3289300D03*
G01*
X5059679Y-3548379D03*
G01*
X4909820Y-3764279D03*
G01*
X4678679Y-3886200D03*
G01*
X4414520Y-3886200D03*
G01*
X4183379Y-3764279D03*
G01*
X4033520Y-3548379D03*
G01*
X4003040Y-3286760D03*
G01*
X4094479Y-3040379D03*
G01*
X4292600Y-2867660D03*
G01*
X8902700Y-2804160D03*
G01*
X9156700Y-2867660D03*
G01*
X9354820Y-3040379D03*
G01*
X9446259Y-3289300D03*
G01*
X9415779Y-3548379D03*
G01*
X9265920Y-3764279D03*
G01*
X9034779Y-3886200D03*
G01*
X8770620Y-3886200D03*
G01*
X8539479Y-3764279D03*
G01*
X8389620Y-3548379D03*
G01*
X8359140Y-3286760D03*
G01*
X8450579Y-3040379D03*
G01*
X8648700Y-2867660D03*
G01*
X11582400Y-2804160D03*
G01*
X11836400Y-2867660D03*
G01*
X12034520Y-3040379D03*
G01*
X12125959Y-3289300D03*
G01*
X12095479Y-3548379D03*
G01*
X11945620Y-3764279D03*
G01*
X11714479Y-3886200D03*
G01*
X11450320Y-3886200D03*
G01*
X11219179Y-3764279D03*
G01*
X11069320Y-3548379D03*
G01*
X11038840Y-3286760D03*
G01*
X11130279Y-3040379D03*
G01*
X11328400Y-2867660D03*
D20*
G01*
X8839200Y-2362200D03*
G01*
X3040176Y-2159000D03*
G01*
X1778000Y-1993900D03*
G01*
X11582400Y-2374900D03*
G01*
X10668000Y-3403600D03*
G01*
X10375900Y-3530600D03*
G01*
X10198100Y-3340100D03*
G01*
X9017000Y-3213100D03*
G01*
X3009900Y-1485900D03*
G01*
X4191000Y-2336800D03*
G01*
X4597400Y-3086100D03*
G01*
X1727200Y-3390900D03*
G01*
X4673600Y-3340100D03*
G01*
X2616200Y-1003300D03*
G01*
X1193800Y-3098800D03*
G01*
X4521200Y-4394200D03*
G01*
X11201400Y-1600200D03*
G01*
X5130800Y-673100D03*
G01*
X10795000Y-1181100D03*
G01*
X10655300Y-4991100D03*
G01*
X10045700Y-4991100D03*
G01*
X10033000Y-1422400D03*
G01*
X10415066Y-5499100D03*
G01*
X9156700Y-2565400D03*
G01*
X9779000Y-3149600D03*
G01*
X6985000Y-342900D03*
G01*
X6578600Y-482600D03*
G01*
X1587500Y-4241800D03*
G01*
X1765300Y-4203700D03*
G01*
X11214100Y-5753100D03*
G01*
X7226300Y-4114800D03*
G01*
X7467600Y-3238500D03*
G01*
X10401300Y-5753100D03*
G01*
X5168900Y-2197100D03*
G01*
X5130800Y-3962400D03*
G01*
X4038600Y-2628900D03*
G01*
X3784600Y-2489200D03*
G01*
X9118600Y-4191000D03*
G01*
X9169400Y-4064000D03*
G01*
X12814300Y-4102100D03*
G01*
X8636000Y-965200D03*
D21*
G01*
X3632200Y-4737100D03*
D20*
G01*
X11468100Y-4203700D03*
G01*
X11696700Y-4165600D03*
G01*
X965200Y-6007100D03*
G01*
X2324100Y-2374900D03*
G01*
X2116912Y-3086100D03*
D22*
X8505901Y-435899D02*
G01*
X8505901Y-325899D01*
X9070898Y-435899D02*
G01*
X9070898Y-325899D01*
M02*
